<?xml version="1.0" encoding="UTF-8" standalone="no"?>
<!-- Created with Inkscape (http://www.inkscape.org/) -->

<svg
   xmlns:dc="http://purl.org/dc/elements/1.1/"
   xmlns:cc="http://creativecommons.org/ns#"
   xmlns:rdf="http://www.w3.org/1999/02/22-rdf-syntax-ns#"
   xmlns:svg="http://www.w3.org/2000/svg"
   xmlns="http://www.w3.org/2000/svg"
   xmlns:xlink="http://www.w3.org/1999/xlink"
   xmlns:sodipodi="http://sodipodi.sourceforge.net/DTD/sodipodi-0.dtd"
   xmlns:inkscape="http://www.inkscape.org/namespaces/inkscape"
   width="128"
   height="128"
   viewBox="0 0 33.866666 33.866668"
   version="1.1"
   id="svg8"
   sodipodi:docname="logo.svg"
   inkscape:version="0.92.4 (5da689c313, 2019-01-14)">
  <defs
     id="defs2">
    <linearGradient
       id="linearGradient955"
       inkscape:collect="always">
      <stop
         id="stop951"
         offset="0"
         style="stop-color:#ffffff;stop-opacity:1" />
      <stop
         id="stop953"
         offset="1"
         style="stop-color:#ffffff;stop-opacity:0.09045226" />
    </linearGradient>
    <inkscape:path-effect
       effect="lattice2"
       gridpoint0="24.223925,0.60060553"
       gridpoint1="103.75071,0.60060553"
       gridpoint2="24.223925,51.748047"
       gridpoint3="103.75071,51.748047"
       gridpoint4="43.824371,0.53029328"
       gridpoint5="84.150264,0.53029328"
       gridpoint6="43.824371,51.818359"
       gridpoint7="84.150264,51.818359"
       gridpoint8x9="63.987323,0.53029328"
       gridpoint10x11="63.987323,51.818359"
       gridpoint12="27.630175,13.578872"
       gridpoint13="100.34446,13.578872"
       gridpoint14="25.005175,38.64478"
       gridpoint15="100.34446,38.76978"
       gridpoint16="51.244171,13.406697"
       gridpoint17="76.730464,13.406697"
       gridpoint18="51.244171,38.941955"
       gridpoint19="76.730464,38.941955"
       gridpoint20x21="63.987323,13.35231"
       gridpoint22x23="63.987323,38.996343"
       gridpoint24x26="28.473925,25.299326"
       gridpoint25x27="99.50071,25.299326"
       gridpoint28x30="51.855064,25.841206"
       gridpoint29x31="76.119571,25.841206"
       gridpoint32x33x34x35="63.987323,26.174326"
       id="path-effect915"
       is_visible="true"
       horizontal_mirror="true"
       vertical_mirror="true"
       live_update="false" />
    <inkscape:path-effect
       effect="envelope"
       id="path-effect913"
       is_visible="true"
       yy="false"
       xx="true"
       bendpath1="m 23.66143,0.53029328 h 80.65178"
       bendpath2="m 104.31321,0.53029328 c -9.625,17.37499972 0,51.28806572 0,51.28806572"
       bendpath3="m 23.66143,51.818359 h 80.65178"
       bendpath4="m 23.66143,0.53029328 c 7.75,19.12499972 0,51.28806572 0,51.28806572"
       bendpath4-nodetypes="cc"
       bendpath2-nodetypes="cc" />
    <inkscape:path-effect
       effect="perspective-envelope"
       up_left_point="60.04103,0.5579402"
       up_right_point="67.933582,0.5579402"
       down_left_point="19.482422,51.818359"
       down_right_point="108.49219,51.818359"
       id="path-effect911"
       is_visible="true"
       deform_type="envelope_deformation"
       horizontal_mirror="false"
       vertical_mirror="true"
       overflow_perspective="true" />
    <inkscape:path-effect
       effect="envelope"
       id="path-effect909"
       is_visible="true"
       yy="false"
       xx="true"
       bendpath1="M 32.068729,0.92291103 H 95.905898"
       bendpath2="M 95.905898,0.92291103 V 51.818359"
       bendpath3="M 32.068729,51.818359 H 95.905898"
       bendpath4="M 32.068729,0.92291103 V 51.818359" />
    <inkscape:path-effect
       effect="perspective-envelope"
       up_left_point="56.455298,0.92291103"
       up_right_point="71.519314,0.92291103"
       down_left_point="19.482422,51.818359"
       down_right_point="108.49219,51.818359"
       id="path-effect907"
       is_visible="true"
       deform_type="perspective"
       horizontal_mirror="false"
       vertical_mirror="true"
       overflow_perspective="false" />
    <inkscape:path-effect
       effect="envelope"
       id="path-effect905"
       is_visible="true"
       yy="true"
       xx="true"
       bendpath1="m 56.003908,0.51231495 15.984374,-0.004989"
       bendpath2="M 71.988282,0.50732597 C 71.863282,20.007326 76.867191,39.193359 97.99219,46.443359"
       bendpath3="M 19.482422,51.818359 H 108.49219"
       bendpath4="M 56.003908,0.51231495 C 54.878908,28.512314 50.357422,39.193359 29.482422,46.318359"
       bendpath4-nodetypes="cc"
       bendpath2-nodetypes="cc"
       bendpath1-nodetypes="cc" />
    <inkscape:path-effect
       pattern-nodetypes="ccccccccccc"
       fuse_tolerance="0"
       vertical_pattern="true"
       prop_units="false"
       tang_offset="0.4"
       normal_offset="0"
       spacing="2"
       scale_y_rel="false"
       prop_scale="1"
       copytype="repeated"
       pattern="m 6.3500009,259.95834 0.4042704,0.81914 0.9039757,0.13136 -0.6541231,0.63761 0.1544178,0.90032 -0.8085408,-0.42507 -0.8085401,0.42507 0.1544177,-0.90032 -0.654123,-0.63761 0.9039757,-0.13136 z"
       is_visible="true"
       id="path-effect853"
       effect="skeletal" />
    <inkscape:path-effect
       pattern-nodetypes="ccccccccccc"
       fuse_tolerance="0"
       vertical_pattern="true"
       prop_units="false"
       tang_offset="2.5"
       normal_offset="0"
       spacing="2"
       scale_y_rel="false"
       prop_scale="1"
       copytype="repeated"
       pattern="m 6.3500009,259.95834 0.4042704,0.81914 0.9039757,0.13136 -0.6541231,0.63761 0.1544178,0.90032 -0.8085408,-0.42507 -0.8085401,0.42507 0.1544177,-0.90032 -0.654123,-0.63761 0.9039757,-0.13136 z"
       is_visible="true"
       id="path-effect849"
       effect="skeletal" />
    <inkscape:path-effect
       pattern-nodetypes="ccccccccccc"
       fuse_tolerance="0"
       vertical_pattern="true"
       prop_units="false"
       tang_offset="0.4"
       normal_offset="0"
       spacing="2"
       scale_y_rel="false"
       prop_scale="1"
       copytype="repeated"
       pattern="m 6.3500009,259.95834 0.4042704,0.81914 0.9039757,0.13136 -0.6541231,0.63761 0.1544178,0.90032 -0.8085408,-0.42507 -0.8085401,0.42507 0.1544177,-0.90032 -0.654123,-0.63761 0.9039757,-0.13136 z"
       is_visible="true"
       id="path-effect879"
       effect="skeletal" />
    <inkscape:path-effect
       pattern-nodetypes="ccccccccccc"
       fuse_tolerance="0"
       vertical_pattern="true"
       prop_units="false"
       tang_offset="2.5"
       normal_offset="0"
       spacing="2"
       scale_y_rel="false"
       prop_scale="1"
       copytype="repeated"
       pattern="m 6.3500009,259.95834 0.4042704,0.81914 0.9039757,0.13136 -0.6541231,0.63761 0.1544178,0.90032 -0.8085408,-0.42507 -0.8085401,0.42507 0.1544177,-0.90032 -0.654123,-0.63761 0.9039757,-0.13136 z"
       is_visible="true"
       id="path-effect875"
       effect="skeletal" />
    <inkscape:path-effect
       pattern-nodetypes="ccccccccccc"
       fuse_tolerance="0"
       vertical_pattern="true"
       prop_units="false"
       tang_offset="0"
       normal_offset="0"
       spacing="2"
       scale_y_rel="false"
       prop_scale="1"
       copytype="repeated"
       pattern="m 6.3500009,259.95834 0.4042704,0.81914 0.9039757,0.13136 -0.6541231,0.63761 0.1544178,0.90032 -0.8085408,-0.42507 -0.8085401,0.42507 0.1544177,-0.90032 -0.654123,-0.63761 0.9039757,-0.13136 z"
       is_visible="true"
       id="path-effect871"
       effect="skeletal" />
    <inkscape:path-effect
       pattern-nodetypes="ccccccccccc"
       fuse_tolerance="0"
       vertical_pattern="true"
       prop_units="false"
       tang_offset="2.5"
       normal_offset="0"
       spacing="2"
       scale_y_rel="false"
       prop_scale="1"
       copytype="repeated"
       pattern="m 6.3500009,259.95834 0.4042704,0.81914 0.9039757,0.13136 -0.6541231,0.63761 0.1544178,0.90032 -0.8085408,-0.42507 -0.8085401,0.42507 0.1544177,-0.90032 -0.654123,-0.63761 0.9039757,-0.13136 z"
       is_visible="true"
       id="path-effect867"
       effect="skeletal" />
    <inkscape:path-effect
       effect="envelope"
       id="path-effect833"
       is_visible="true"
       yy="true"
       xx="true"
       bendpath1="m 14.887806,262.45829 h 5.425425"
       bendpath2="m 20.313231,262.45829 v 29.4426"
       bendpath3="m 14.887806,291.90089 h 5.425425"
       bendpath4="m 14.887806,262.45829 v 29.4426" />
    <linearGradient
       id="linearGradient5653">
      <stop
         style="stop-color:#f9ffff;stop-opacity:1"
         offset="0"
         id="stop5651" />
    </linearGradient>
    <linearGradient
       inkscape:collect="always"
       id="linearGradient5616">
      <stop
         style="stop-color:#002868;stop-opacity:1;"
         offset="0"
         id="stop5612" />
      <stop
         style="stop-color:#002868;stop-opacity:0;"
         offset="1"
         id="stop5614" />
    </linearGradient>
    <inkscape:path-effect
       effect="skeletal"
       id="path-effect5539"
       is_visible="true"
       pattern="m 6.3500009,259.95834 0.4042704,0.81914 0.9039757,0.13136 -0.6541231,0.63761 0.1544178,0.90032 -0.8085408,-0.42507 -0.8085401,0.42507 0.1544177,-0.90032 -0.654123,-0.63761 0.9039757,-0.13136 z"
       copytype="repeated"
       prop_scale="1"
       scale_y_rel="false"
       spacing="2"
       normal_offset="0"
       tang_offset="2.5"
       prop_units="false"
       vertical_pattern="true"
       fuse_tolerance="0"
       pattern-nodetypes="ccccccccccc" />
    <inkscape:path-effect
       effect="lattice2"
       gridpoint0="8.4666678,263.13333"
       gridpoint1="25.400001,263.13333"
       gridpoint2="-1.4941406e-07,296.99998"
       gridpoint3="33.866669,296.99998"
       gridpoint4="14.816668,263.13333"
       gridpoint5="19.050001,263.13333"
       gridpoint6="8.466667,296.99998"
       gridpoint7="25.400002,296.99998"
       gridpoint8x9="16.933334,263.13332"
       gridpoint10x11="16.933334,296.99998"
       gridpoint12="8.2452418,271.65283"
       gridpoint13="25.621427,271.65283"
       gridpoint14="-1.5369424e-07,288.53332"
       gridpoint15="33.866669,288.53332"
       gridpoint16="14.816668,271.6"
       gridpoint17="19.050001,271.6"
       gridpoint18="8.466667,288.53332"
       gridpoint19="25.400002,288.53332"
       gridpoint20x21="16.933334,271.59998"
       gridpoint22x23="16.933334,288.53332"
       gridpoint24x26="-6.3244383,277.8986"
       gridpoint25x27="40.191107,277.8986"
       gridpoint28x30="6.3900207,280.00826"
       gridpoint29x31="27.476648,280.00826"
       gridpoint32x33x34x35="16.933334,280.06665"
       id="path-effect4590"
       is_visible="true"
       horizontal_mirror="false"
       vertical_mirror="true"
       live_update="true" />
    <inkscape:path-effect
       effect="skeletal"
       id="path-effect5539-7"
       is_visible="true"
       pattern="m 6.3500009,259.95834 0.4042704,0.81914 0.9039757,0.13136 -0.6541231,0.63761 0.1544178,0.90032 -0.8085408,-0.42507 -0.8085401,0.42507 0.1544177,-0.90032 -0.654123,-0.63761 0.9039757,-0.13136 z"
       copytype="repeated"
       prop_scale="1"
       scale_y_rel="false"
       spacing="2"
       normal_offset="0"
       tang_offset="0.5"
       prop_units="false"
       vertical_pattern="true"
       fuse_tolerance="0"
       pattern-nodetypes="ccccccccccc" />
    <inkscape:path-effect
       effect="skeletal"
       id="path-effect5539-2"
       is_visible="true"
       pattern="m 6.3500009,259.95834 0.4042704,0.81914 0.9039757,0.13136 -0.6541231,0.63761 0.1544178,0.90032 -0.8085408,-0.42507 -0.8085401,0.42507 0.1544177,-0.90032 -0.654123,-0.63761 0.9039757,-0.13136 z"
       copytype="repeated"
       prop_scale="1"
       scale_y_rel="false"
       spacing="2"
       normal_offset="0"
       tang_offset="0.4"
       prop_units="false"
       vertical_pattern="true"
       fuse_tolerance="0"
       pattern-nodetypes="ccccccccccc" />
    <linearGradient
       inkscape:collect="always"
       xlink:href="#linearGradient5616"
       id="linearGradient5618"
       x1="16.933334"
       y1="280.39737"
       x2="16.933334"
       y2="296.6192"
       gradientUnits="userSpaceOnUse"
       gradientTransform="matrix(3.7795276,0,0,3.7795276,0,-994.51968)" />
    <clipPath
       clipPathUnits="userSpaceOnUse"
       id="clipPath923">
      <path
         sodipodi:nodetypes="czcccc"
         inkscape:connector-curvature="0"
         id="path925"
         d="m 56.003908,0.51231495 c 0,0 3.662774,-0.49549605 8.000092,-0.51280628857 C 68.341317,-0.01938898 71.988282,0.50732597 71.988282,0.50732597 72.166864,49.112578 128.00001,48.677365 128.00001,65.000011 H 0 C -0.17857141,48.495986 55.825336,49.298947 56.003908,0.51231495 Z"
         style="fill:#f6ffff;fill-opacity:1;stroke:none;stroke-width:32.24914932;stroke-linecap:butt;stroke-miterlimit:4;stroke-dasharray:none;stroke-opacity:1" />
    </clipPath>
    <linearGradient
       inkscape:collect="always"
       xlink:href="#linearGradient955"
       id="linearGradient949"
       x1="64"
       y1="65.237442"
       x2="64"
       y2="126.56025"
       gradientUnits="userSpaceOnUse" />
  </defs>
  <sodipodi:namedview
     id="base"
     pagecolor="#ffffff"
     bordercolor="#666666"
     borderopacity="1.0"
     inkscape:pageopacity="0.0"
     inkscape:pageshadow="2"
     inkscape:zoom="5.6568543"
     inkscape:cx="38.49101"
     inkscape:cy="60.817997"
     inkscape:document-units="px"
     inkscape:current-layer="layer1"
     showgrid="false"
     units="px"
     inkscape:window-width="1920"
     inkscape:window-height="1017"
     inkscape:window-x="-8"
     inkscape:window-y="244"
     inkscape:window-maximized="1"
     inkscape:pagecheckerboard="true">
    <inkscape:grid
       type="xygrid"
       id="grid825"
       empspacing="8"
       spacingx="2.1166667"
       spacingy="2.1166667" />
  </sodipodi:namedview>
  <metadata
     id="metadata5">
    <rdf:RDF>
      <cc:Work
         rdf:about="">
        <dc:format>image/svg+xml</dc:format>
        <dc:type
           rdf:resource="http://purl.org/dc/dcmitype/StillImage" />
        <dc:title />
      </cc:Work>
    </rdf:RDF>
  </metadata>
  <g
     inkscape:label="Layer 1"
     inkscape:groupmode="layer"
     id="layer1"
     transform="translate(0,-263.13333)">
    <path
       style="fill:url(#linearGradient5618);fill-opacity:1;stroke:none;stroke-width:32;stroke-linecap:butt;stroke-miterlimit:4;stroke-dasharray:none;stroke-opacity:1"
       d="M 64.003906 0 C 59.666588 0.017045669 56.003906 0.50585938 56.003906 0.50585938 C 55.825335 48.54116 -0.17857141 47.750148 0 64 A 64.000004 64.000004 0 0 0 64 128 A 64.000004 64.000004 0 0 0 128 64 C 128 47.928731 72.166864 48.356718 71.988281 0.5 C 71.988281 0.5 68.341224 -0.018897638 64.003906 0 z "
       transform="matrix(0.26458334,0,0,0.26458334,0,263.13333)"
       id="path5610" />
    <path
       style="fill:#ffffff;fill-opacity:1;stroke:none;stroke-width:1px;stroke-linecap:butt;stroke-linejoin:miter;stroke-opacity:1"
       d="m 63.988432,0.58678195 c -0.03892,0.52000115 -0.17746,1.89519845 -0.17746,1.89519845 -0.100649,0.088269 -0.418353,0.2986391 -0.418353,0.2986391 0.07842,0.3906935 0.252458,1.4336092 0.252458,1.4336092 -0.03297,0.537488 -0.14726,1.9829663 -0.14726,1.9829663 0.129235,-0.2266751 0.491418,-0.9304899 0.491418,-0.9304899 0.140699,0.2520247 0.491663,0.9304902 0.491663,0.9304902 C 64.454367,5.6975556 64.333084,4.2142288 64.333084,4.2142288 64.403809,3.861405 64.585068,2.7806197 64.585068,2.7806197 64.48782,2.7139514 64.166609,2.4819805 64.166609,2.4819805 64.133018,2.0192352 63.988432,0.58678195 63.988432,0.58678195 Z M 60.005288,1.3929463 c -0.434697,0.6364655 -0.848317,1.2561723 -1.246739,1.8772585 -0.203035,0.1024868 -0.407838,0.2046922 -0.615002,0.3072767 -0.16023,0.477353 -0.29241,0.9484126 -0.399192,1.4155331 -0.350263,0.666798 -0.665231,1.3214754 -0.951904,1.9767918 0.292694,-0.3152761 0.584548,-0.6273972 0.881159,-0.9436658 0.04666,0.3042715 0.105736,0.6060338 0.174955,0.9066217 0.183087,-0.6496898 0.39561,-1.301165 0.643122,-1.9630086 0.316632,-0.4744962 0.63691,-0.9450318 0.967125,-1.4252489 -0.105225,-0.094105 -0.207481,-0.1885415 -0.306256,-0.2837523 0.250377,-0.6145888 0.533646,-1.2340928 0.852732,-1.8678062 z m 7.964244,0 c 0.319094,0.6336722 0.602166,1.2532586 0.852538,1.8678062 -0.09876,0.095217 -0.200794,0.1896408 -0.306,0.2837524 0.330104,0.480063 0.650361,0.9509067 0.966872,1.4252488 0.247671,0.662253 0.460645,1.3140437 0.64383,1.9641301 0.06925,-0.3007493 0.127586,-0.6033038 0.174248,-0.9077432 0.298754,0.3185827 0.586794,0.6272028 0.881599,0.9447871 C 70.895834,6.3152759 70.581021,5.660161 70.230565,4.9930147 70.123746,4.5258655 69.991338,4.0548632 69.83108,3.5774815 69.623913,3.4748842 69.419366,3.3727044 69.216325,3.2702049 68.817889,2.6491087 68.404246,2.0294219 67.969532,1.3929463 Z m -6.637161,3.3219719 c -0.207835,0.6067522 -0.405691,1.2018603 -0.595532,1.7992791 -0.207011,0.097333 -0.414933,0.1947149 -0.624291,0.2922423 0.04726,0.461311 0.108934,0.9191874 0.182048,1.3743464 -0.134462,0.648143 -0.252544,1.2884382 -0.358021,1.931448 0.225374,-0.3078766 0.449306,-0.6117983 0.677424,-0.9195242 0.160516,0.2990329 0.326037,0.5978529 0.493446,0.8948652 0.01232,-0.6379591 0.03489,-1.2771103 0.0714,-1.9207979 0.195272,-0.4630439 0.388135,-0.9133733 0.588165,-1.3791111 -0.17713,-0.092596 -0.353072,-0.184994 -0.527219,-0.2781949 0.01363,-0.5928247 0.0435,-1.189552 0.09258,-1.7945529 z m 5.310454,1e-7 c 0.04912,0.6049868 0.07899,1.2017424 0.09265,1.794553 -0.173969,0.093124 -0.349788,0.1867989 -0.526748,0.2793163 0.199754,0.4650885 0.392892,0.9167057 0.58788,1.3791004 0.03652,0.64364 0.05936,1.2817692 0.0717,1.919688 0.167449,-0.2971547 0.332499,-0.5956901 0.493053,-0.8948655 0.229424,0.3095183 0.450911,0.610959 0.677572,0.9206265 C 67.933458,9.4703192 67.815368,8.8300453 67.680907,8.1818972 67.754,7.7267636 67.815737,7.2688459 67.862974,6.8075614 67.653668,6.710051 67.445604,6.6126381 67.238644,6.5153216 67.048561,5.91714 66.850941,5.3224459 66.642825,4.7149183 Z M 63.989743,10.49404 c -0.07786,0.46112 -0.300995,1.739867 -0.300995,1.739867 -0.174126,0.08302 -0.677994,0.279993 -0.677994,0.279993 0.140009,0.360217 0.482586,1.354208 0.482586,1.354208 -0.0297,0.505616 -0.125331,1.918869 -0.125331,1.918869 0.160432,-0.226684 0.621883,-0.90812 0.621883,-0.90812 0.17386,0.244366 0.62192,0.908123 0.62192,0.908123 -0.02434,-0.489958 -0.125405,-1.91887 -0.125405,-1.91887 0.123074,-0.342318 0.482515,-1.354207 0.482515,-1.354207 -0.164515,-0.06223 -0.678021,-0.279995 -0.678021,-0.279995 -0.06518,-0.441682 -0.301158,-1.739868 -0.301158,-1.739868 z m -7.833605,0.750398 c -0.227877,0.591093 -0.440529,1.16895 -0.656191,1.761222 -0.275468,0.104392 -0.554672,0.208392 -0.838624,0.313247 0.104174,0.446058 0.215816,0.893335 0.330557,1.340115 -0.162531,0.644939 -0.33002,1.293915 -0.513334,1.944188 0.330505,-0.31694 0.646788,-0.633932 0.95116,-0.948914 0.07495,0.105535 0.552223,0.778937 0.627178,0.884472 0.04132,-0.648337 0.07618,-1.286315 0.113379,-1.929406 0.244367,-0.457356 0.492096,-0.929942 0.730533,-1.384754 -0.238307,-0.08289 -0.475656,-0.165841 -0.716321,-0.248773 -0.0209,-0.577191 -0.0324,-1.153849 -0.02834,-1.731397 z m 15.662769,10e-7 c 0.0041,0.577565 -0.0077,1.155289 -0.02857,1.732498 -0.239748,0.08263 -0.478679,0.165085 -0.716067,0.247672 0.238389,0.454761 0.486241,0.927451 0.730561,1.384756 0.03728,0.644041 0.07154,1.280117 0.112925,1.929403 0.08574,-0.12102 0.541923,-0.763449 0.627659,-0.884469 0.304326,0.314969 0.620442,0.633098 0.950912,0.950029 -0.183327,-0.650277 -0.35084,-1.299258 -0.513366,-1.944199 0.114676,-0.446626 0.226249,-0.89532 0.330351,-1.341222 C 73.029384,13.214044 72.750138,13.11006 72.474692,13.00566 72.259127,12.413609 72.04669,11.835312 71.818907,11.244439 Z m -11.541766,3.110167 c -0.13086,0.591786 -0.253196,1.164587 -0.380862,1.760615 -0.249786,0.101487 -0.503904,0.204713 -0.759353,0.30672 0.166218,0.452793 0.328891,0.901573 0.490398,1.356915 -0.07269,0.650211 -0.151267,1.306112 -0.240925,1.964232 0.257629,-0.317712 0.508319,-0.636917 0.751709,-0.952191 0.218735,0.300875 0.433006,0.601531 0.64508,0.904255 -0.01743,-0.655908 -0.0411,-1.304503 -0.06856,-1.952425 0.15011,-0.376064 0.402159,-1.013222 0.55227,-1.389286 -0.236726,-0.08635 -0.474843,-0.172616 -0.715899,-0.258811 -0.134458,-0.85719 -0.139403,-0.882834 -0.273861,-1.740024 z m 7.421179,3e-6 c -0.06435,0.413012 -0.209076,1.327014 -0.27343,1.740026 -0.241077,0.08621 -0.479168,0.172446 -0.715913,0.258811 0.245945,0.617531 0.306363,0.771756 0.552307,1.389287 -0.02748,0.648947 -0.05148,1.296612 -0.06891,1.953555 0.212267,-0.303052 0.426588,-0.603057 0.645526,-0.904259 0.243388,0.315289 0.493199,0.633341 0.750806,0.951062 -0.08968,-0.658328 -0.167794,-1.313809 -0.240512,-1.96423 0.161523,-0.455479 0.324156,-0.903984 0.490389,-1.356916 -0.255439,-0.102015 -0.509601,-0.205224 -0.759376,-0.30672 -0.127692,-0.59618 -0.250006,-1.168678 -0.380891,-1.760616 z m -3.708333,5.755877 c -0.08448,0.474874 -0.328603,1.805957 -0.328603,1.805957 -0.188741,0.08525 -0.74445,0.292857 -0.74445,0.292857 0.144151,0.377174 0.520013,1.425081 0.520013,1.425081 -0.03919,0.528428 -0.176552,2.040626 -0.176552,2.040626 0.196171,-0.243564 0.729861,-0.967493 0.729861,-0.967493 0.191486,0.257601 0.730088,0.967504 0.730088,0.967504 -0.04398,-0.523531 -0.176944,-2.040629 -0.176944,-2.040629 0.135311,-0.361923 0.519866,-1.425075 0.519866,-1.425075 -0.188506,-0.0664 -0.744527,-0.292867 -0.744527,-0.292867 -0.07798,-0.461855 -0.328752,-1.805961 -0.328752,-1.805961 z m -9.69197,0.83614 c -0.35079,0.612186 -0.741951,1.227324 -1.185473,1.847341 -0.462424,0.111319 -0.94651,0.22299 -1.454621,0.334831 0.08709,0.46927 0.168722,0.940313 0.242888,1.415471 -0.457037,0.685915 -0.967653,1.374074 -1.539993,2.069344 0.711478,-0.337185 1.370249,-0.6734 1.983314,-1.009116 0.256348,0.315339 0.507289,0.631744 0.754694,0.951039 0.28827,-0.694093 0.539759,-1.380618 0.758757,-2.063619 0.511961,-0.493211 0.975091,-0.984067 1.398985,-1.472527 -0.342476,-0.08701 -0.69354,-0.172664 -1.053499,-0.258855 0.04844,-0.609747 0.07931,-1.212741 0.09495,-1.813909 z m 19.379226,7e-6 c 0.01568,0.601166 0.04652,1.204165 0.095,1.81391 -0.35995,0.0862 -0.710673,0.172997 -1.053163,0.260018 0.423682,0.488191 0.886355,0.978423 1.397977,1.471356 0.219009,0.682996 0.470478,1.36953 0.758753,2.063619 0.2474,-0.319372 0.498358,-0.635624 0.754694,-0.951039 0.61304,0.33574 1.271857,0.671907 1.983308,1.009116 -0.572208,-0.695141 -1.082208,-1.383548 -1.539179,-2.069334 0.07409,-0.475083 0.155065,-0.946286 0.242081,-1.415482 -0.508097,-0.111852 -0.99221,-0.223499 -1.454618,-0.334831 -0.44343,-0.619927 -0.834109,-1.235235 -1.184849,-1.847333 z m -13.979912,3.219718 c -0.219913,0.621262 -0.462581,1.246722 -0.736009,1.87651 -0.352458,0.109286 -0.719034,0.219125 -1.101861,0.328942 0.133514,0.483079 0.260714,0.964184 0.38659,1.453552 -0.256808,0.698782 -0.545225,1.401052 -0.870494,2.1095 0.488981,-0.340258 0.943334,-0.679928 1.368869,-1.018522 0.169063,0.223461 0.572136,0.757986 0.741199,0.981447 0.111113,-0.708723 0.206677,-1.409511 0.286614,-2.10707 0.338505,-0.49974 0.648174,-0.99707 0.9356,-1.491808 -0.289723,-0.09319 -0.58289,-0.186076 -0.881991,-0.278338 -0.03413,-0.624047 -0.07648,-1.239631 -0.128517,-1.854213 z m 8.581008,10e-6 c -0.052,0.614586 -0.09437,1.230161 -0.12846,1.854212 -0.298911,0.09221 -0.591963,0.1852 -0.881506,0.278341 0.287453,0.49476 0.597223,0.992047 0.935769,1.491811 0.07998,0.697346 0.175022,1.398554 0.28616,2.107065 0.595832,-0.788886 0.145361,-0.192559 0.741193,-0.981446 0.425557,0.338621 0.880003,0.67824 1.369014,1.018524 -0.325326,-0.708454 -0.61381,-1.410712 -0.870657,-2.109501 0.125829,-0.489404 0.253084,-0.970435 0.386554,-1.453551 -0.38258,-0.109754 -0.748868,-0.218527 -1.101134,-0.327752 -0.273659,-0.630161 -0.516884,-1.256082 -0.736933,-1.877703 z m -4.287241,6.158887 c -0.119069,0.512551 -0.508378,1.949273 -0.508378,1.949273 -0.288097,0.08979 -1.177525,0.316521 -1.177525,0.316521 0.192687,0.40655 0.76185,1.534724 0.76185,1.534724 -0.08776,0.575407 -0.390447,2.189589 -0.390447,2.189589 0.362292,-0.259319 1.315833,-1.037861 1.315833,-1.037861 0.332167,0.278936 1.316584,1.037874 1.316584,1.037874 -0.104207,-0.559976 -0.39189,-2.189591 -0.39189,-2.189591 0.213667,-0.389321 0.76107,-1.534713 0.76107,-1.534713 -0.312811,-0.07373 -1.177796,-0.316536 -1.177796,-0.316536 -0.136242,-0.498297 -0.509301,-1.94928 -0.509301,-1.94928 z m -15.726957,0.953893 c -0.880473,0.653795 -1.827655,1.307582 -2.847506,1.964881 -0.871727,0.108658 -1.784539,0.21787 -2.740554,0.32607 0.01339,0.506063 0.02355,1.012148 0.028,1.525405 -0.992997,0.725323 -2.030626,1.448394 -3.111958,2.175995 1.260274,-0.339614 2.462314,-0.680273 3.608602,-1.022726 0.363409,0.347203 0.717821,0.69463 1.067,1.047509 0.661019,-0.737568 1.29524,-1.469211 1.901092,-2.200024 1.061914,-0.516842 2.055115,-1.032715 2.985319,-1.549946 -0.571598,-0.104518 -1.160772,-0.20822 -1.770497,-0.310691 0.311864,-0.657373 0.605292,-1.3084 0.8805,-1.956473 z m 31.44746,0.0013 c 0.275042,0.647514 0.56896,1.29845 0.880632,1.955255 -0.609741,0.10249 -1.198962,0.206154 -1.770572,0.31069 0.930233,0.517263 1.923537,1.033074 2.985477,1.549947 0.606298,0.73129 1.241011,1.463234 1.90255,2.201284 0.348831,-0.352614 0.701232,-0.701845 1.064234,-1.048781 1.14626,0.342482 2.348351,0.683083 3.608605,1.022726 -1.081327,-0.727613 -2.118977,-1.450659 -3.111961,-2.175995 0.0044,-0.513389 0.0147,-1.019211 0.028,-1.525405 C 84.34298,33.461955 83.430705,33.35269 82.559323,33.244066 81.539555,32.58682 80.592024,31.93415 79.711601,31.280401 Z m -23.05953,3.4224 c -0.534614,0.663792 -1.115509,1.32706 -1.747869,1.994078 -0.650957,0.107289 -1.32676,0.215158 -2.030938,0.322498 0.11841,0.515841 0.24535,1.035921 0.382656,1.557408 -0.589093,0.735787 -1.212638,1.469243 -1.871511,2.205888 0.91156,-0.342948 1.776195,-0.686132 2.597915,-1.031449 0.403384,0.352661 0.820197,0.70744 1.254393,1.064017 0.273327,-0.747193 0.538753,-1.485516 0.795959,-2.22866 0.701661,-0.522177 1.350759,-1.042931 1.95318,-1.565393 -0.508718,-0.108778 -1.01927,-0.217196 -1.534225,-0.324412 0.04269,-0.432805 0.157754,-1.56117 0.20044,-1.993975 z m 14.672268,1.2e-5 c 0.107186,1.066937 0.09439,0.927041 0.20158,1.993978 -0.515024,0.10721 -1.025542,0.215576 -1.534302,0.324379 0.602702,0.522666 1.252116,1.04428 1.954152,1.566665 0.256597,0.740955 0.521896,1.482381 0.794536,2.227383 0.434071,-0.356578 0.851064,-0.711354 1.254332,-1.064015 0.821752,0.345342 1.686538,0.688476 2.598131,1.03145 -0.658963,-0.736663 -1.282617,-1.470083 -1.871795,-2.205887 0.137172,-0.521413 0.263164,-1.041644 0.381469,-1.557412 -0.703897,-0.107309 -1.379275,-0.215235 -2.029995,-0.322493 -0.632431,-0.667045 -1.213447,-1.33026 -1.748122,-1.994078 0.0091,0.01058 1.4e-5,3e-5 1.4e-5,3e-5 z m -7.329579,6.53466 c -0.234255,0.536005 -1.007879,2.025504 -1.007879,2.025504 -0.574186,0.09324 -2.324748,0.326456 -2.324748,0.326456 0.377156,0.41865 1.51947,1.571014 1.51947,1.571014 -0.163997,0.585854 -0.697254,2.208533 -0.697254,2.208533 0.68109,-0.258507 2.51287,-1.040385 2.51287,-1.040385 0.639067,0.281114 2.513954,1.040385 2.513954,1.040385 -0.180256,-0.559294 -0.699492,-2.20853 -0.699492,-2.20853 0.426427,-0.39607 1.518007,-1.571008 1.518007,-1.571008 C 66.713411,43.513812 65.004531,43.26298 65.004531,43.26298 64.730589,42.748675 63.99476,41.237473 63.99476,41.237473 Z m -28.074122,0.93333 c -1.320184,0.66139 -2.65134,1.312883 -3.997633,1.966451 -1.206438,0.08272 -2.43957,0.164504 -3.700589,0.245562 0.128411,0.543569 0.242904,1.040991 0.370564,1.589338 -1.002731,0.638552 -1.980515,1.270721 -2.928754,1.901452 -0.118105,0.07813 -0.235346,0.156185 -0.352228,0.234216 0.153658,-0.03344 0.825951,-0.18042 0.979609,-0.213859 1.07097,-0.234707 2.140994,-0.47109 3.209434,-0.710137 0.418411,0.284594 0.831448,0.571463 1.244318,0.858708 0.127158,0.0872 0.254031,0.174066 0.381022,0.261553 0.07374,-0.08028 0.148256,-0.160496 0.222795,-0.240854 0.607658,-0.651777 1.237521,-1.306331 1.880642,-1.962042 1.38795,-0.497358 2.758976,-0.996683 4.10945,-1.503506 -0.856295,-0.133271 -1.7267,-0.266013 -2.616748,-0.396977 0.391279,-0.676775 0.793861,-1.356429 1.198124,-2.029905 0.0052,0.01054 -6e-6,0 -6e-6,0 z m 56.135107,8e-6 c 0.404319,0.673426 0.806837,1.353179 1.198159,2.029903 -0.89004,0.130985 -1.76052,0.263683 -2.616802,0.396975 1.350079,0.506709 2.7202,1.006258 4.107693,1.503502 0.643153,0.655699 1.272957,1.310277 1.880642,1.962042 0.07456,0.08035 0.149057,0.160581 0.222815,0.240854 0.12701,-0.08753 0.253843,-0.174308 0.381025,-0.261553 0.412899,-0.287351 0.825877,-0.574008 1.244311,-0.858708 1.068379,0.239062 2.138532,0.475415 3.209442,0.710135 -1.35444,-0.295958 2.33405,0.509821 0.97961,0.213861 -0.11688,-0.07802 -0.23413,-0.156093 -0.35225,-0.234216 -0.94822,-0.630742 -1.92604,-1.262889 -2.928757,-1.901453 0.128795,-0.553782 0.242608,-1.039079 0.372201,-1.588083 -1.260607,-0.08104 -2.494247,-0.1641 -3.700334,-0.24681 -1.346313,-0.6536 -2.677533,-1.305025 -3.997746,-1.966449 0.01652,0.01065 -9e-6,0 -9e-6,0 z m -42.033506,3.551655 c -0.886011,0.663341 -1.802427,1.317856 -2.748791,1.971381 -1.0629,0.08689 -2.139443,0.173074 -3.231539,0.25862 0.28253,0.524479 0.594212,1.047985 0.938305,1.571709 -0.740967,0.70236 -1.509766,1.427273 -2.228026,2.113826 1.241547,-0.306709 2.467523,-0.616421 3.677121,-0.930199 0.734515,0.359114 1.496451,0.716983 2.291506,1.075933 0.233037,-0.712438 0.494209,-1.433893 0.776415,-2.159782 1.073749,-0.495604 2.112457,-0.994744 3.114923,-1.500404 -0.082,-0.01136 -2.641234,-0.367317 -2.723231,-0.378678 0.01846,-0.673001 0.06448,-1.346873 0.133317,-2.022406 z m 27.933273,3e-6 c 0.06898,0.675566 0.114947,1.349369 0.133561,2.022404 -2.565339,0.357949 -0.157229,0.02198 -2.722567,0.37993 1.002262,0.505555 2.041011,1.003641 3.114497,1.49915 0.282204,0.725555 0.545531,1.447674 0.778625,2.159778 0.794741,-0.358911 1.555204,-0.716856 2.28944,-1.075931 1.209516,0.313789 2.435773,0.62348 3.677225,0.930199 -0.716191,-0.684544 -1.48845,-1.412251 -2.227322,-2.112586 0.344081,-0.523894 0.652995,-1.048287 0.935484,-1.572945 -1.091748,-0.08553 -2.1673,-0.171746 -3.229874,-0.258621 -0.946424,-0.653557 -1.862988,-1.308005 -2.749069,-1.971378 z"
       transform="matrix(0.26458334,0,0,0.26458334,0,263.13333)"
       id="path878"
       inkscape:connector-curvature="0"
       inkscape:path-effect="#path-effect911;#path-effect915"
       inkscape:original-d="m 64,-32.404297 -1.527344,3.095703 -3.417968,0.496094 2.472656,2.410156 L 60.943359,-23 64,-24.605469 67.056641,-23 l -0.583985,-3.402344 2.472656,-2.410156 -3.417968,-0.496094 z m -39.585938,1.304688 c -0.50753,1.032907 -1.013343,2.067358 -1.517578,3.103515 -1.138144,0.171591 -2.275982,0.343203 -3.414062,0.515625 0.828499,0.802621 1.657979,1.603579 2.488281,2.402344 -0.185953,1.138243 -0.371645,2.27529 -0.554687,3.414063 1.013359,-0.547126 2.027074,-1.0919 3.041015,-1.636719 1.02364,0.526375 2.047969,1.05011 3.072266,1.574219 -0.206211,-1.130118 -0.411974,-2.260054 -0.615235,-3.390626 0.818046,-0.808025 1.63732,-1.613874 2.457032,-2.417968 -1.139894,-0.158362 -2.280126,-0.316953 -3.419922,-0.476563 -0.514541,-1.027993 -1.025973,-2.05676 -1.53711,-3.08789 z m 79.148438,0 c -0.51105,1.03113 -1.02461,2.059897 -1.53906,3.08789 -1.13961,0.15961 -2.278262,0.318201 -3.417971,0.476563 0.819579,0.804094 1.637171,1.609943 2.455081,2.417968 -0.20323,1.130572 -0.40711,2.262462 -0.61328,3.392579 1.02413,-0.524107 2.04683,-1.049797 3.07031,-1.576172 1.01377,0.544819 2.02782,1.091547 3.04101,1.638672 -0.18302,-1.138772 -0.36682,-2.277773 -0.55273,-3.416016 0.83017,-0.798765 1.65796,-1.599723 2.48633,-2.402344 -1.1379,-0.172422 -2.27415,-0.344034 -3.41211,-0.515625 -0.50416,-1.036157 -1.01013,-2.070608 -1.51758,-3.103515 z m -57.871094,5.548828 c -0.509,1.032264 -1.016931,2.064926 -1.523437,3.099609 -1.138538,0.168945 -2.275578,0.338187 -3.414063,0.507813 0.826693,0.803641 1.654384,1.605557 2.482422,2.40625 -0.189165,1.137146 -0.377525,2.274547 -0.564453,3.412109 1.015185,-0.543345 2.029283,-1.085385 3.044922,-1.626953 1.021931,0.529625 2.045937,1.058051 3.068359,1.585937 -0.202242,-1.131326 -0.405448,-2.262827 -0.605468,-3.394531 0.820342,-0.806098 1.643223,-1.610951 2.464843,-2.414062 -1.139531,-0.161386 -2.280458,-0.322309 -3.419922,-0.484375 -0.512269,-1.029506 -1.023484,-2.059873 -1.533203,-3.091797 z m 36.595703,0 c -0.509635,1.031924 -1.021016,2.062291 -1.533203,3.091797 -1.139274,0.162066 -2.278622,0.324942 -3.417968,0.486328 0.821487,0.803112 1.64268,1.607965 2.46289,2.414062 -0.19999,1.131704 -0.40131,2.261252 -0.603516,3.392578 1.022258,-0.527886 2.044642,-1.056312 3.066407,-1.585937 1.015472,0.541568 2.029903,1.085561 3.044922,1.628906 -0.186913,-1.137562 -0.375326,-2.274963 -0.564453,-3.412109 0.827901,-0.800693 1.655865,-1.602609 2.482421,-2.40625 -1.138299,-0.169625 -2.27571,-0.338868 -3.414062,-0.507813 -0.506423,-1.034683 -1.01452,-2.069298 -1.523438,-3.101562 z M 64,-15.441406 l -1.527344,3.095703 -3.417968,0.498047 2.472656,2.410156 -0.583985,3.4023438 L 64,-7.6425781 67.056641,-6.0351562 66.472656,-9.4375 l 2.472656,-2.410156 -3.417968,-0.498047 z m -39.433594,1.308594 c -0.494986,1.039332 -0.990186,2.079128 -1.484375,3.11914 -1.136685,0.182551 -2.273486,0.364097 -3.410156,0.546875 0.836217,0.791849 1.67336,1.5819163 2.509766,2.373047 -0.177449,1.1375622 -0.355619,2.2751141 -0.533203,3.4121094 1.010834,-0.5506772 2.022425,-1.1013643 3.033203,-1.6523438 1.026939,0.520252 2.053225,1.0419079 3.080078,1.5625 -0.21154,-1.1320063 -0.423075,-2.2650071 -0.634766,-3.3964844 0.812164,-0.815811 1.625151,-1.6302197 2.4375,-2.4453122 -1.141587,-0.148536 -2.284209,-0.298617 -3.425781,-0.447266 -0.524682,-1.024403 -1.048389,-2.047182 -1.572266,-3.072265 z m 78.843754,0 c -0.5238,1.025083 -1.04963,2.049815 -1.57422,3.074218 -1.14139,0.148649 -2.282432,0.296777 -3.423831,0.445313 0.812217,0.8150925 1.625471,1.6295012 2.437501,2.4453122 -0.21165,1.1314773 -0.42522,2.2644781 -0.63672,3.3964844 1.02669,-0.5205921 2.05526,-1.042248 3.08203,-1.5625 1.01061,0.5509795 2.02058,1.1036197 3.03125,1.6542969 -0.17757,-1.1369953 -0.35579,-2.2745472 -0.5332,-3.4121094 0.83627,-0.7911307 1.67369,-1.5831511 2.50976,-2.3750001 -1.13648,-0.182778 -2.27365,-0.364324 -3.41015,-0.546875 -0.49411,-1.040012 -0.98752,-2.079808 -1.48242,-3.11914 z m -57.619144,5.5488276 c -0.499393,1.0371024 -0.997363,2.0736588 -1.496094,3.1113282 -1.137362,0.1772598 -2.274762,0.3558298 -3.41211,0.5332031 0.832616,0.7954015 1.665255,1.5900066 2.498047,2.3847656 -0.182475,1.1366929 -0.366326,2.27387908 -0.548828,3.41015625 1.013103,-0.54633071 2.027932,-1.09414311 3.041016,-1.640625 1.024528,0.52471182 2.047779,1.04935575 3.072265,1.57421875 -0.206626,-1.13261103 -0.412494,-2.2642513 -0.61914,-3.3964844 0.81569,-0.8121071 1.631385,-1.6240444 2.447266,-2.4355469 -1.140799,-0.1534488 -2.281092,-0.3073375 -3.421876,-0.4609374 -0.520081,-1.0266332 -1.041122,-2.0528404 -1.560546,-3.0800782 z m 36.396484,0 c -0.519341,1.0272378 -1.038599,2.053445 -1.558594,3.0800782 -1.140597,0.1535999 -2.281266,0.3074886 -3.421875,0.4609374 0.815743,0.8115025 1.631708,1.6234398 2.447266,2.4355469 -0.206612,1.1322331 -0.414505,2.2658265 -0.621094,3.39843752 1.02432,-0.52486298 2.049857,-1.04950694 3.074219,-1.57421874 1.012917,0.54648188 2.024169,1.09234116 3.037109,1.63867187 -0.182453,-1.13627717 -0.364437,-2.27346335 -0.546875,-3.41015625 0.832657,-0.794759 1.665568,-1.5893641 2.498047,-2.3847656 C 85.958545,-5.1168264 84.82077,-5.2953964 83.683594,-5.4726562 83.184942,-6.5103256 82.68681,-7.546882 82.1875,-8.5839844 Z M 64,1.5234375 62.472656,4.6191406 59.054688,5.1152344 61.527344,7.5253906 60.943359,10.927734 64,9.3222656 67.056641,10.927734 66.472656,7.5253906 68.945312,5.1152344 65.527344,4.6191406 Z M 24.8125,2.8339844 c -0.496275,1.0385763 -0.994211,2.0765568 -1.492188,3.1132812 -1.13715,0.1780158 -2.274925,0.3558676 -3.412109,0.5332032 0.832827,0.7919621 1.666638,1.5844873 2.498047,2.3789062 -0.18429,1.1339338 -0.371141,2.266167 -0.558594,3.398437 1.015276,-0.540283 2.030331,-1.081767 3.044922,-1.625 1.022702,0.527813 2.044532,1.05717 3.066406,1.587891 C 27.757536,11.084502 27.554331,9.9491429 27.349609,8.8144531 28.166539,8.0021949 28.983191,7.1877618 29.798828,6.3730469 28.658099,6.2192201 27.517751,6.0672468 26.376953,5.9140625 25.856244,4.8865979 25.335005,3.8596348 24.8125,2.8339844 Z m 78.35156,0 c -0.52242,1.0256504 -1.04382,2.0526135 -1.56445,3.0800781 C 100.459,6.0672468 99.318279,6.2211732 98.177734,6.375 c 0.815505,0.814715 1.630469,1.6271949 2.447266,2.4394531 -0.20469,1.1346898 -0.40795,2.2700489 -0.60938,3.4062499 1.02172,-0.530721 2.04388,-1.060078 3.06641,-1.587891 1.01443,0.543233 2.02981,1.084717 3.04492,1.625 -0.1874,-1.13227 -0.37239,-2.2645032 -0.55664,-3.398437 0.83128,-0.7944189 1.66341,-1.5869441 2.4961,-2.3789062 -1.137,-0.1773356 -2.27515,-0.3551874 -3.41211,-0.5332032 -0.4979,-1.0367244 -0.99404,-2.0747049 -1.49024,-3.1132812 z M 45.964844,8.3828125 c -0.499907,1.0367622 -0.998926,2.0719825 -1.5,3.1074215 -1.13763,0.174615 -2.27641,0.349466 -3.414063,0.523438 0.830457,0.795175 1.660761,1.591834 2.490235,2.388672 -0.187011,1.134123 -0.375212,2.267439 -0.564454,3.40039 1.016143,-0.539187 2.031221,-1.079827 3.046876,-1.621093 1.021666,0.529814 2.043368,1.05994 3.064453,1.591797 -0.199748,-1.135598 -0.39954,-2.269797 -0.601563,-3.404297 0.818839,-0.80984 1.637139,-1.620101 2.455078,-2.431641 -1.140234,-0.15685 -2.281591,-0.314193 -3.421875,-0.470703 -0.517606,-1.028674 -1.035849,-2.0565577 -1.554687,-3.0839845 z m 36.048828,0 c -0.518755,1.0274268 -1.037164,2.0553105 -1.554688,3.0839845 -1.140098,0.15651 -2.279871,0.313853 -3.419922,0.470703 0.817808,0.81154 1.636372,1.621801 2.455079,2.431641 -0.20199,1.1345 -0.403806,2.268699 -0.603516,3.404297 1.020918,-0.531857 2.042953,-1.061983 3.064453,-1.591797 1.015487,0.541266 2.0309,1.081906 3.046875,1.621093 -0.189226,-1.132951 -0.37748,-2.266267 -0.564453,-3.40039 0.829338,-0.796838 1.659914,-1.593497 2.490234,-2.388672 C 85.790267,11.8397 84.65307,11.666802 83.515625,11.492188 83.014634,10.456747 82.513495,9.4195747 82.013672,8.3828125 Z M 64,18.488281 l -1.527344,3.095703 -3.417968,0.496094 2.472656,2.410156 -0.583985,3.402344 L 64,26.285156 l 3.056641,1.607422 -0.583985,-3.402344 2.472656,-2.410156 -3.417968,-0.496094 z m -39.080078,1.308594 c -0.511385,1.030715 -1.023475,2.05972 -1.539063,3.085937 -1.139539,0.157986 -2.280299,0.316524 -3.419921,0.472657 0.818335,0.803074 1.635863,1.607385 2.451171,2.416015 -0.2064,1.127358 -0.416266,2.254346 -0.628906,3.378907 1.026682,-0.515981 2.052762,-1.035104 3.078125,-1.556641 1.010937,0.548976 2.021882,1.099765 3.03125,1.654297 -0.175975,-1.142778 -0.354762,-2.283583 -0.537109,-3.423828 0.832339,-0.797292 1.662623,-1.597392 2.492187,-2.400391 -1.137309,-0.174614 -2.274645,-0.348684 -3.412109,-0.521484 -0.502624,-1.037103 -1.008598,-2.0726 -1.515625,-3.105469 z m 78.134768,0.002 c -0.50695,1.032869 -1.01113,2.066413 -1.51367,3.103516 -1.13728,0.1728 -2.27499,0.34687 -3.412114,0.521484 0.829429,0.802999 1.659989,1.603099 2.492184,2.400391 -0.18233,1.140245 -0.36117,2.283003 -0.53711,3.425781 1.00921,-0.554532 2.01853,-1.107274 3.0293,-1.65625 1.02519,0.521537 2.05161,1.04066 3.07813,1.556641 -0.21261,-1.124561 -0.42255,-2.251549 -0.62891,-3.378907 0.81518,-0.80863 1.63297,-1.612941 2.45117,-2.416015 -1.13943,-0.156133 -2.27862,-0.314671 -3.41797,-0.472657 -0.5155,-1.026217 -1.02971,-2.053269 -1.54101,-3.083984 z m -57.007815,5.548828 c -0.510539,1.031207 -1.023574,2.059822 -1.537109,3.087891 -1.13935,0.160252 -2.278559,0.321086 -3.417969,0.480469 0.820225,0.802922 1.640909,1.607171 2.458984,2.414062 -0.202696,1.129474 -0.408048,2.257333 -0.615234,3.384766 1.024305,-0.52184 2.046964,-1.044467 3.070312,-1.570313 1.013337,0.544895 2.026837,1.091762 3.039063,1.640625 -0.181606,-1.140359 -0.364617,-2.281415 -0.550781,-3.419922 0.829795,-0.799294 1.658521,-1.599043 2.486328,-2.402343 -1.13785,-0.171591 -2.276107,-0.343178 -3.414063,-0.513672 -0.504846,-1.035515 -1.011559,-2.069071 -1.519531,-3.101563 z m 35.884766,0 c -0.507893,1.032492 -1.012814,2.066048 -1.517579,3.101563 C 79.276292,28.619713 78.13766,28.7913 77,28.962891 c 0.827671,0.8033 1.656669,1.605001 2.486328,2.404297 -0.186149,1.138507 -0.371166,2.277609 -0.552734,3.417968 1.012059,-0.548863 2.025892,-1.09573 3.039062,-1.640625 1.023183,0.525846 2.046174,1.048473 3.070313,1.570313 -0.207152,-1.127433 -0.412576,-2.255292 -0.615235,-3.384766 0.817939,-0.806891 1.636938,-1.61114 2.457032,-2.414062 C 85.74554,28.756633 84.607915,28.595799 83.46875,28.435547 82.955297,27.407478 82.442092,26.378863 81.931641,25.347656 Z M 64,35.451172 l -1.527344,3.095703 -3.417968,0.498047 2.472656,2.408203 -0.583985,3.404297 L 64,43.25 l 3.056641,1.607422 -0.583985,-3.404297 2.472656,-2.408203 -3.417968,-0.498047 z m -39.335938,1.302734 c -0.540328,1.015559 -1.083833,2.02659 -1.630859,3.035156 -1.143859,0.122458 -2.287656,0.243471 -3.431641,0.363282 0.792746,0.825071 1.582987,1.654517 2.371094,2.488281 -0.21702,0.994998 -0.437753,1.98857 -0.662109,2.980469 -0.02797,0.122456 -0.05609,0.246684 -0.08398,0.36914 0.243327,-0.111496 0.487272,-0.224063 0.730469,-0.335937 0.801464,-0.368126 1.602025,-0.738516 2.402344,-1.111328 0.760834,0.447912 1.51982,0.898888 2.279297,1.351562 0.230475,0.137197 0.461017,0.274384 0.691406,0.41211 -0.01512,-0.126237 -0.0298,-0.252708 -0.04492,-0.378907 -0.121209,-1.024705 -0.246345,-2.048403 -0.375,-3.070312 0.858395,-0.770986 1.716174,-1.546304 2.570313,-2.326172 -1.131334,-0.21052 -2.262956,-0.420768 -3.394531,-0.628906 -0.470436,-1.053355 -0.944437,-2.101811 -1.421876,-3.148438 z m 78.648438,0 c -0.47736,1.046627 -0.95151,2.095083 -1.42188,3.148438 -1.13139,0.208138 -2.263378,0.418386 -3.394526,0.628906 0.853999,0.779868 1.710106,1.555186 2.568356,2.326172 -0.12861,1.021909 -0.25383,2.045607 -0.375,3.070312 -0.0151,0.126199 -0.0298,0.25267 -0.0449,0.378907 0.23035,-0.137726 0.46097,-0.274913 0.69141,-0.41211 0.75935,-0.452674 1.51859,-0.90365 2.27929,-1.351562 0.80019,0.372812 1.60102,0.743202 2.40235,1.111328 0.24316,0.111874 0.48718,0.224441 0.73047,0.335937 -0.0279,-0.122456 -0.056,-0.246684 -0.084,-0.36914 -0.22432,-0.991899 -0.44512,-1.985471 -0.66211,-2.980469 0.78798,-0.833764 1.57848,-1.661257 2.3711,-2.486328 -1.1438,-0.119811 -2.28602,-0.242777 -3.42969,-0.365235 -0.54694,-1.008566 -1.09062,-2.019597 -1.63086,-3.035156 z m -57.445312,5.552735 c -0.531282,1.020472 -1.065448,2.037288 -1.601563,3.052734 -1.142517,0.134929 -2.285119,0.269115 -3.427734,0.402344 0.801917,0.818721 1.603748,1.639848 2.402343,2.464843 -0.229568,1.122672 -0.462919,2.245399 -0.699218,3.365235 1.037593,-0.494362 2.073206,-0.991892 3.109375,-1.492188 0.999545,0.569953 2.000144,1.142939 2.998047,1.71875 -0.152241,-1.146822 -0.309708,-2.293248 -0.46875,-3.4375 0.848553,-0.780472 1.695542,-1.564702 2.541015,-2.351562 -1.133639,-0.197669 -2.266584,-0.394064 -3.400391,-0.589844 -0.481799,-1.047269 -0.966306,-2.090381 -1.453124,-3.132812 z m 36.24414,0 c -0.486739,1.042431 -0.971405,2.085543 -1.453125,3.132812 -1.13362,0.19578 -2.266936,0.394128 -3.400391,0.591797 0.845338,0.78686 1.692599,1.569137 2.541016,2.349609 -0.159005,1.144252 -0.314595,2.290678 -0.466797,3.4375 0.997739,-0.575811 1.996715,-1.148797 2.996094,-1.71875 1.036003,0.500296 2.071951,0.997826 3.109375,1.492188 -0.236262,-1.119836 -0.469688,-2.240611 -0.699219,-3.363281 0.798467,-0.824996 1.598602,-1.648076 2.400391,-2.466797 -1.14243,-0.133229 -2.283453,-0.267415 -3.425781,-0.402344 -0.536028,-1.015446 -1.070369,-2.032262 -1.601563,-3.052734 z"
       clip-path="url(#clipPath923)" />
    <path
       style="fill:url(#linearGradient949);fill-opacity:1;stroke:none;stroke-width:1px;stroke-linecap:butt;stroke-linejoin:miter;stroke-opacity:1"
       d="M 64 52.416016 L 62.472656 55.511719 L 59.054688 56.007812 L 61.527344 58.417969 L 60.943359 61.820312 L 64 60.214844 L 67.056641 61.820312 L 66.472656 58.417969 L 68.945312 56.007812 L 65.527344 55.511719 L 64 52.416016 z M 23.814453 53.699219 C 23.230853 54.692554 22.64127 55.680125 22.046875 56.660156 C 20.897078 56.728188 19.747298 56.792351 18.597656 56.855469 C 19.351816 57.711381 20.101533 58.574509 20.845703 59.445312 C 20.543719 60.543455 20.233403 61.63739 19.914062 62.724609 C 20.985877 62.316345 22.057105 61.898193 23.126953 61.472656 C 24.084043 62.112681 25.037874 62.761805 25.988281 63.417969 C 25.92607 62.250737 25.853878 61.085164 25.771484 59.923828 C 26.671174 59.194455 27.568046 58.457167 28.460938 57.710938 C 27.339876 57.444102 26.217584 57.178126 25.095703 56.916016 C 24.675367 55.837376 24.247893 54.766671 23.814453 53.699219 z M 104.16016 53.699219 C 103.72679 54.766671 103.29917 55.839329 102.87891 56.917969 C 101.75721 57.180079 100.6365 57.444102 99.515625 57.710938 C 100.40837 58.457167 101.30554 59.194455 102.20508 59.923828 C 102.12268 61.085164 102.04854 62.250737 101.98633 63.417969 C 102.93658 62.761805 103.89072 62.112681 104.84766 61.472656 C 105.91733 61.898193 106.98891 62.316345 108.06055 62.724609 C 107.74126 61.63739 107.43085 60.543455 107.12891 59.445312 C 107.87296 58.574509 108.62097 57.713334 109.375 56.857422 C 108.22555 56.794304 107.07734 56.728188 105.92773 56.660156 C 105.33344 55.680125 104.74366 54.692554 104.16016 53.699219 z M 45.261719 59.257812 C 44.699684 60.262828 44.13382 61.264755 43.564453 62.261719 C 42.416977 62.359231 41.26863 62.45434 40.121094 62.548828 C 40.89657 63.390378 41.66987 64.236514 42.439453 65.087891 C 42.169935 66.199223 41.894293 67.307316 41.613281 68.412109 C 42.67054 67.962459 43.72774 67.507675 44.783203 67.046875 C 45.761145 67.655114 46.736824 68.267897 47.710938 68.886719 C 47.606017 67.728407 47.494723 66.573812 47.376953 65.419922 C 48.254004 64.667078 49.127882 63.907958 50 63.144531 C 48.872374 62.908689 47.74518 62.674452 46.617188 62.441406 C 46.169294 61.376373 45.717568 60.31525 45.261719 59.257812 z M 82.716797 59.257812 C 82.26102 60.31525 81.809149 61.376373 81.361328 62.441406 C 80.233521 62.674452 79.10596 62.908689 77.978516 63.144531 C 78.850494 63.907958 79.724655 64.667078 80.601562 65.419922 C 80.483792 66.573812 80.372498 67.728407 80.267578 68.886719 C 81.241532 68.267897 82.21753 67.655114 83.195312 67.046875 C 84.250603 67.507675 85.306197 67.962459 86.363281 68.412109 C 86.082315 67.307316 85.808544 66.199223 85.539062 65.087891 C 86.308519 64.236514 87.080118 63.390378 87.855469 62.548828 C 86.708118 62.45434 85.561354 62.359231 84.414062 62.261719 C 83.84479 61.264755 83.278737 60.262828 82.716797 59.257812 z M 64 69.380859 L 62.472656 72.476562 L 59.054688 72.972656 L 61.527344 75.382812 L 60.943359 78.785156 L 64 77.177734 L 67.056641 78.785156 L 66.472656 75.382812 L 68.945312 72.972656 L 65.527344 72.476562 L 64 69.380859 z M 21.933594 70.558594 C 21.268295 71.496521 20.595282 72.422022 19.912109 73.333984 C 18.76345 73.291276 17.614537 73.244383 16.466797 73.193359 C 17.134968 74.104074 17.794758 75.026664 18.443359 75.962891 C 18.029728 77.01273 17.60193 78.052665 17.160156 79.083984 C 18.271035 78.808079 19.381049 78.51718 20.490234 78.212891 C 21.369738 78.954056 22.242174 79.707894 23.109375 80.474609 C 23.183718 79.297324 23.242271 78.123871 23.283203 76.953125 C 24.253759 76.316766 25.21836 75.66536 26.179688 74.998047 C 25.092339 74.621606 24.005457 74.249061 22.916016 73.880859 C 22.602088 72.76416 22.273362 71.657151 21.933594 70.558594 z M 106.04102 70.558594 C 105.7013 71.657151 105.37444 72.76416 105.06055 73.880859 C 103.97128 74.249061 102.88209 74.621606 101.79492 74.998047 C 102.75609 75.66536 103.72296 76.316766 104.69336 76.953125 C 104.73429 78.123871 104.79089 79.297324 104.86523 80.474609 C 105.73229 79.707894 106.60501 78.956009 107.48438 78.214844 C 108.59338 78.519134 109.70376 78.808079 110.81445 79.083984 C 110.37275 78.052665 109.94481 77.01273 109.53125 75.962891 C 110.17975 75.026664 110.83975 74.104074 111.50781 73.193359 C 110.36026 73.244383 109.21097 73.291276 108.0625 73.333984 C 107.37944 72.422022 106.7062 71.496521 106.04102 70.558594 z M 43.970703 76.179688 C 43.354277 77.15148 42.732297 78.114961 42.103516 79.070312 C 40.953545 79.09677 39.803889 79.120216 38.654297 79.140625 C 39.37582 80.019932 40.091353 80.90623 40.800781 81.802734 C 40.457487 82.885645 40.104383 83.963622 39.742188 85.035156 C 40.828462 84.67081 41.913613 84.297043 42.998047 83.914062 C 43.92831 84.590297 44.856431 85.275509 45.779297 85.96875 C 45.763045 84.799931 45.735061 83.632391 45.697266 82.46875 C 46.623065 81.774186 47.545912 81.069988 48.464844 80.355469 C 47.355923 80.047437 46.244839 79.742155 45.134766 79.439453 C 44.754761 78.346565 44.367077 77.260065 43.970703 76.179688 z M 84.007812 76.179688 C 83.611503 77.260065 83.223695 78.346565 82.84375 79.439453 C 81.733858 79.742155 80.624365 80.047437 79.515625 80.355469 C 80.434405 81.069988 81.355602 81.774186 82.28125 82.46875 C 82.243455 83.632391 82.217424 84.799931 82.201172 85.96875 C 83.123887 85.275509 84.050357 84.590297 84.980469 83.914062 C 86.064724 84.297043 87.148279 84.67081 88.234375 85.035156 C 87.87224 83.963622 87.520953 82.885645 87.177734 81.802734 C 87.887046 80.90623 88.602813 80.019932 89.324219 79.140625 C 88.174815 79.120216 87.024785 79.09677 85.875 79.070312 C 85.246321 78.114961 84.624137 77.15148 84.007812 76.179688 z M 64 86.34375 L 62.472656 89.439453 L 59.054688 89.9375 L 61.527344 92.345703 L 60.943359 95.75 L 64 94.142578 L 67.056641 95.75 L 66.472656 92.345703 L 68.945312 89.9375 L 65.527344 89.439453 L 64 86.34375 z M 18.150391 87.136719 C 17.343008 87.976719 16.52061 88.786271 15.6875 89.554688 C 14.555078 89.304104 13.42666 89.044203 12.302734 88.773438 C 12.821845 89.758685 13.312457 90.764762 13.763672 91.796875 C 13.156317 92.702261 12.523308 93.56869 11.863281 94.384766 C 12.982369 94.44297 14.117563 94.455325 15.265625 94.427734 C 15.939057 95.357952 16.580965 96.317224 17.1875 97.308594 C 17.613086 96.148203 17.978278 94.979919 18.292969 93.806641 C 19.397184 93.366704 20.502755 92.879361 21.603516 92.353516 C 20.59942 91.771393 19.589611 91.198066 18.574219 90.634766 C 18.470886 89.453172 18.326056 88.28853 18.150391 87.136719 z M 109.82422 87.136719 C 109.64858 88.28853 109.50372 89.455125 109.40039 90.636719 C 108.38516 91.20002 107.37503 91.771393 106.37109 92.353516 C 107.47167 92.879361 108.57565 93.366704 109.67969 93.806641 C 109.99433 94.979919 110.35964 96.150156 110.78516 97.310547 C 111.39159 96.319177 112.03566 95.359905 112.70898 94.429688 C 113.85686 94.457278 114.99046 94.44297 116.10938 94.384766 C 115.44945 93.56869 114.81819 92.702261 114.21094 91.796875 C 114.66208 90.764762 115.1509 89.758685 115.66992 88.773438 C 114.54618 89.044203 113.41935 89.304104 112.28711 89.554688 C 111.45414 88.786271 110.63147 87.976719 109.82422 87.136719 z M 41.441406 92.939453 C 41.273179 93.157532 41.104764 93.375154 40.935547 93.591797 C 40.397047 94.280616 39.852833 94.9654 39.302734 95.642578 C 38.150285 95.556027 36.998304 95.464385 35.845703 95.369141 C 36.477897 96.3096 37.104194 97.262582 37.720703 98.228516 C 37.26312 99.266903 36.792442 100.29262 36.306641 101.30273 C 37.434444 101.07823 38.563938 100.83508 39.693359 100.57422 C 40.548519 101.35673 41.39426 102.1531 42.230469 102.9668 C 42.362261 101.7778 42.470467 100.59399 42.556641 99.414062 C 43.558249 98.808998 44.552455 98.185213 45.539062 97.550781 C 44.459478 97.131405 43.379433 96.7159 42.298828 96.304688 C 42.089556 95.442538 41.873321 94.589041 41.652344 93.740234 C 41.583027 93.473022 41.512121 93.20557 41.441406 92.939453 z M 86.535156 92.939453 C 86.464441 93.20557 86.395488 93.473022 86.326172 93.740234 C 86.105228 94.589041 85.888922 95.444493 85.679688 96.306641 C 84.599256 96.717853 83.51886 97.131405 82.439453 97.550781 C 83.425898 98.185213 84.420429 98.808998 85.421875 99.414062 C 85.508048 100.59399 85.614339 101.7778 85.746094 102.9668 C 86.582167 102.1531 87.430136 101.35673 88.285156 100.57422 C 89.414392 100.83508 90.542304 101.07823 91.669922 101.30273 C 91.1842 100.29262 90.715322 99.266903 90.257812 98.228516 C 90.87422 97.262582 91.500721 96.3096 92.132812 95.369141 C 90.980401 95.464385 89.828042 95.556027 88.675781 95.642578 C 88.125773 94.9654 87.581381 94.280616 87.042969 93.591797 C 86.873759 93.375154 86.703345 93.157532 86.535156 92.939453 z M 64 103.30859 L 62.472656 106.4043 L 59.054688 106.90039 L 61.527344 109.31055 L 60.943359 112.71289 L 64 111.10742 L 67.056641 112.71289 L 66.472656 109.31055 L 68.945312 106.90039 L 65.527344 106.4043 L 64 103.30859 z M 36.869141 109.33203 C 36.015965 110.104 35.150273 110.83946 34.273438 111.53516 C 33.176145 111.20634 32.084567 110.86797 30.996094 110.51953 C 31.432826 111.52613 31.836797 112.55597 32.205078 113.60938 C 31.533539 114.46268 30.836616 115.28144 30.111328 116.06055 C 31.231833 116.18565 32.363758 116.272 33.505859 116.32227 C 34.11196 117.2916 34.691483 118.2881 35.242188 119.3125 C 35.723771 118.18707 36.155371 117.05485 36.542969 115.91797 C 37.661335 115.56194 38.781318 115.16087 39.900391 114.7207 C 38.952489 114.07421 37.998519 113.43679 37.039062 112.80859 C 37.021677 111.63652 36.962911 110.47878 36.869141 109.33203 z M 91.107422 109.33203 C 91.01369 110.47878 90.954886 111.63652 90.9375 112.80859 C 89.978203 113.43679 89.023919 114.07421 88.076172 114.7207 C 89.195063 115.16087 90.315409 115.56194 91.433594 115.91797 C 91.821128 117.05485 92.252871 118.18707 92.734375 119.3125 C 93.284988 118.2881 93.864701 117.2916 94.470703 116.32227 C 95.612619 116.272 96.744914 116.18565 97.865234 116.06055 C 97.140068 115.28144 96.442914 114.46268 95.771484 113.60938 C 96.139705 112.55597 96.543809 111.52809 96.980469 110.52148 C 95.892173 110.86992 94.800239 111.20829 93.703125 111.53711 C 92.826433 110.84141 91.960457 110.104 91.107422 109.33203 z M 64 120.27148 L 62.472656 123.36914 L 59.054688 123.86523 L 61.527344 126.27539 L 60.943359 129.67773 L 64 128.07031 L 67.056641 129.67773 L 66.472656 126.27539 L 68.945312 123.86523 L 65.527344 123.36914 L 64 120.27148 z "
       transform="matrix(0.26458334,0,0,0.26458334,0,263.13333)"
       id="path898" />
  </g>
</svg>
