<?xml version="1.0" standalone="no"?>
<!DOCTYPE svg PUBLIC "-//W3C//DTD SVG 20010904//EN"
 "http://www.w3.org/TR/2001/REC-SVG-20010904/DTD/svg10.dtd">
<svg version="1.0" xmlns="http://www.w3.org/2000/svg"
 width="260.000000pt" height="260.000000pt" viewBox="0 0 260.000000 260.000000"
 preserveAspectRatio="xMidYMid meet">
<metadata>
Created by potrace 1.14, written by Peter Selinger 2001-2017
</metadata>
<g transform="translate(0.000000,260.000000) scale(0.100000,-0.100000)"
fill="#000000" stroke="none">
<path d="M1155 2591 c-15 -4 -20 -15 -20 -41 1 -66 -23 -205 -49 -285 -31 -97
-87 -199 -155 -282 -54 -67 -51 -76 14 -42 27 15 36 17 27 6 -11 -13 -10 -17
5 -26 10 -6 13 -11 6 -11 -6 0 -26 -12 -43 -27 -26 -21 -43 -27 -86 -28 -43 0
-59 -6 -81 -27 -15 -14 -63 -49 -107 -77 -65 -42 -74 -51 -52 -51 15 0 45 9
67 19 39 19 40 19 34 0 -4 -13 -2 -19 9 -19 28 0 17 -18 -15 -25 -18 -4 -42
-19 -54 -33 -20 -23 -25 -24 -39 -13 -10 9 -28 11 -49 7 l-32 -6 23 19 c19 17
30 41 17 41 -2 0 -93 -46 -202 -101 -268 -137 -319 -172 -355 -243 -18 -35
-20 -51 -14 -125 7 -96 11 -124 28 -196 7 -27 13 -52 13 -55 4 -23 20 -58 34
-74 9 -11 10 -16 4 -12 -7 4 -13 3 -13 -3 0 -5 8 -15 17 -20 10 -6 13 -11 7
-11 -8 0 -6 -12 5 -34 9 -18 19 -32 22 -30 4 2 7 -8 6 -22 0 -15 5 -29 10 -33
4 -3 17 -25 27 -48 11 -24 23 -43 28 -43 4 0 7 -3 6 -8 -2 -4 7 -18 19 -31 12
-13 20 -28 17 -32 -2 -4 5 -13 16 -19 11 -6 18 -15 15 -20 -3 -5 0 -12 6 -16
8 -4 9 -3 5 4 -10 17 3 15 21 -3 8 -8 19 -13 24 -10 5 4 9 2 9 -4 0 -15 -18
-23 -25 -11 -3 5 -11 10 -16 10 -6 0 3 -12 20 -26 17 -14 30 -28 28 -32 -1 -4
3 -8 8 -9 6 -1 9 5 7 13 -2 8 2 14 8 14 5 0 10 -5 10 -12 0 -9 3 -9 12 0 7 7
17 12 22 12 6 0 -2 -11 -17 -25 -15 -14 -27 -29 -27 -32 0 -3 9 2 20 12 19 17
21 17 40 0 17 -15 22 -16 36 -4 25 21 47 20 71 -3 20 -19 26 -20 48 -8 13 7
22 17 19 22 -3 5 -12 1 -19 -8 -12 -17 -14 -17 -39 -1 -14 10 -26 23 -26 29 0
6 8 4 18 -5 24 -22 34 -21 50 3 14 23 34 27 26 5 -4 -8 -1 -15 6 -15 6 0 8 5
5 10 -11 18 5 10 33 -15 32 -30 34 -30 57 -5 17 18 17 20 2 14 -9 -3 -17 -10
-17 -15 0 -5 -4 -9 -10 -9 -12 0 -8 43 5 52 19 14 28 8 14 -9 -12 -14 -10 -14
14 1 15 10 27 23 27 30 0 6 4 6 9 -3 6 -9 11 -10 15 -2 4 6 2 11 -5 11 -7 0
-10 2 -7 5 3 3 13 3 22 -1 13 -5 14 -9 5 -21 -7 -7 -18 -12 -25 -9 -22 8 -24
-24 -4 -44 24 -24 27 -14 3 12 -15 17 -15 18 5 18 12 0 21 -3 21 -7 -4 -22 3
-32 16 -27 8 4 15 10 15 15 0 4 -6 6 -13 3 -8 -3 -13 4 -14 17 -2 16 1 19 9
11 6 -6 17 -8 24 -5 9 3 13 0 11 -8 -2 -8 -2 -11 0 -6 3 4 9 7 14 7 6 0 7 -5
4 -10 -3 -6 -2 -10 3 -10 6 0 12 7 16 15 3 8 11 15 17 15 8 0 8 -4 1 -13 -8
-9 -6 -16 8 -25 16 -10 20 -8 25 8 4 11 11 18 16 15 5 -4 6 2 2 12 -6 15 -4
16 9 6 8 -7 17 -11 20 -8 3 3 11 -2 19 -11 12 -15 11 -16 -9 -10 -14 5 -22 3
-22 -4 0 -6 5 -8 10 -5 6 3 10 1 10 -6 0 -8 4 -8 15 1 13 10 19 10 33 -4 10
-9 24 -16 30 -16 7 0 11 -6 10 -12 -2 -7 8 -14 22 -15 l25 -2 -25 7 c-17 5
-21 10 -12 16 6 4 17 4 24 0 6 -4 8 -3 4 4 -3 5 -3 12 1 15 5 2 1 2 -7 -1 -19
-6 -51 -5 -58 2 -7 7 18 36 30 36 6 0 5 -7 -2 -15 -9 -10 -9 -15 -1 -15 6 0
11 5 11 11 0 5 6 7 13 3 8 -5 8 -2 -2 9 -8 10 -9 17 -3 17 6 0 15 -8 21 -17 8
-14 12 -15 25 -4 20 17 21 1 1 -25 -22 -29 -18 -40 5 -11 11 14 20 31 20 39 0
8 3 9 8 3 10 -15 42 -18 42 -4 0 8 5 7 18 -2 15 -13 16 -12 3 4 -9 12 -10 17
-2 17 7 0 10 4 7 9 -10 15 3 37 23 38 16 1 19 -4 16 -30 l-4 -32 17 30 c15 28
22 31 50 26 4 -1 0 -6 -8 -11 -11 -7 -11 -10 -2 -10 7 0 11 -4 8 -9 -3 -5 2
-15 12 -22 15 -12 16 -12 5 2 -11 14 -9 16 17 16 21 0 27 -4 20 -11 -5 -5 -10
-15 -10 -20 0 -6 5 -3 11 7 5 9 15 17 21 17 6 0 5 -7 -3 -17 -11 -15 -11 -16
1 -6 19 17 35 16 21 -1 -9 -10 -8 -15 4 -20 19 -7 47 3 39 15 -3 5 -1 9 5 9 5
0 13 -4 16 -10 10 -16 45 -32 45 -21 0 5 -9 13 -21 16 -21 7 -19 17 6 21 8 1
17 -7 20 -17 4 -11 10 -17 15 -14 5 3 10 0 13 -7 2 -7 3 -6 2 3 -3 24 17 54
38 55 10 1 16 -3 14 -10 -3 -6 -10 -10 -16 -8 -7 1 -10 -2 -6 -8 3 -5 1 -10
-4 -10 -6 0 -11 -5 -11 -11 0 -5 5 -7 10 -4 6 3 10 2 10 -4 0 -5 -5 -12 -10
-14 -6 -3 -5 -4 2 -3 7 2 13 11 13 21 0 23 27 40 50 31 17 -6 16 -8 -5 -31
-13 -14 -18 -25 -12 -25 7 0 12 5 12 10 0 10 41 7 59 -4 5 -3 7 -15 4 -26 -3
-11 0 -20 6 -20 5 0 8 6 5 14 -7 19 24 15 37 -5 5 -8 9 -11 9 -6 0 4 -5 15
-11 25 -10 15 -7 24 11 45 32 37 46 34 19 -4 -16 -23 -19 -33 -10 -42 6 -6 11
-7 11 -1 0 5 5 2 11 -6 9 -13 10 -13 6 0 -2 8 -10 14 -16 12 -16 -3 -14 6 7
32 9 13 25 22 35 20 9 -1 15 2 11 7 -6 10 9 12 19 2 10 -10 -13 -32 -28 -27
-16 7 -30 -15 -18 -27 5 -5 20 -11 33 -14 12 -2 19 -1 16 3 -4 4 -12 8 -17 8
-5 1 -13 2 -19 3 -5 0 -10 6 -10 12 0 6 7 9 15 5 8 -3 22 2 30 11 20 19 33 9
15 -12 -8 -10 -9 -15 -1 -15 6 0 11 5 11 10 0 14 13 12 36 -5 18 -15 18 -16
-6 -13 -17 2 -26 -2 -28 -14 -2 -10 1 -18 7 -18 6 0 8 7 5 15 -5 11 -2 13 9 9
9 -3 21 -3 26 0 14 9 2 36 -15 36 -7 0 -20 10 -29 23 -8 12 -19 21 -22 19 -4
-2 -9 1 -11 7 -2 6 3 8 12 5 18 -7 23 21 6 31 -13 8 -13 35 0 35 6 0 9 -6 8
-12 -2 -7 3 -12 9 -11 8 2 11 -7 9 -27 -2 -16 2 -37 9 -46 13 -18 13 -18 17
45 1 22 6 29 20 28 19 -1 32 -23 22 -38 -3 -5 0 -9 6 -9 16 0 67 -54 64 -68
-1 -7 0 -8 3 -2 3 7 11 5 23 -5 26 -23 42 -11 28 20 -6 14 -15 25 -20 25 -4 0
-8 5 -8 11 0 5 5 7 10 4 6 -3 10 -1 10 5 0 14 -22 8 -27 -6 -2 -6 6 -21 17
-34 34 -40 12 -36 -30 6 -40 39 -57 73 -20 39 12 -11 20 -14 21 -7 1 7 3 17 4
22 1 6 3 13 4 18 1 4 6 0 11 -8 9 -13 11 -13 20 0 11 17 11 17 15 -30 1 -19 7
-36 13 -38 6 -2 10 -9 8 -15 -1 -7 -1 -8 2 -4 2 5 13 1 23 -9 14 -13 22 -14
32 -5 8 6 18 8 23 4 5 -4 3 -1 -3 7 -18 20 -16 35 2 20 13 -11 14 -10 9 4 -3
9 -10 16 -15 16 -11 0 -30 -36 -22 -44 3 -3 2 -6 -4 -6 -5 0 -21 13 -36 29
l-26 29 21 19 c20 18 21 18 15 -2 -4 -11 -2 -27 3 -35 9 -13 11 -13 20 0 5 8
7 24 3 35 -6 20 -5 20 16 1 12 -11 22 -14 22 -8 1 7 3 17 4 22 1 6 3 13 4 18
1 4 5 0 11 -8 5 -9 5 -19 -1 -26 -11 -14 -1 -46 12 -38 5 3 9 10 9 15 0 6 -4
7 -10 4 -5 -3 -10 -2 -10 3 0 16 13 22 27 11 7 -6 13 -7 13 -2 0 5 10 20 23
33 12 14 22 29 22 35 0 5 5 10 12 10 6 0 22 16 35 35 39 57 42 64 30 56 -7 -4
-12 -3 -12 3 0 6 -6 8 -14 5 -8 -3 -12 -13 -9 -22 4 -15 3 -15 -7 -2 -10 13
-11 12 -6 -3 4 -12 2 -16 -6 -11 -7 4 -8 3 -4 -4 4 -7 2 -10 -7 -6 -8 3 -20
-2 -27 -11 -10 -12 -16 -13 -28 -3 -11 9 -14 9 -9 1 5 -8 1 -11 -14 -8 -16 3
-18 1 -10 -9 9 -10 8 -15 -5 -20 -22 -8 -44 11 -37 32 4 13 2 12 -11 -3 -10
-11 -14 -13 -10 -5 7 13 5 13 -8 2 -14 -12 -19 -9 -33 15 -14 25 -15 25 -9 4
5 -20 3 -23 -10 -18 -10 4 -15 3 -11 -2 3 -5 -6 -8 -20 -7 -13 2 -22 0 -20 -4
3 -4 -3 -14 -12 -21 -14 -12 -15 -11 -9 9 8 23 -7 31 -19 11 -5 -7 -14 -4 -28
8 -14 13 -18 14 -13 3 4 -8 1 -7 -7 3 -13 16 -15 16 -21 2 -4 -11 -2 -14 6 -9
7 5 8 3 3 -6 -5 -8 -4 -11 2 -7 5 3 10 -1 10 -9 0 -9 -4 -11 -10 -5 -5 5 -17
7 -26 4 -9 -3 -12 -1 -6 4 17 14 16 40 -2 47 -11 5 -23 -1 -35 -16 -15 -19
-17 -19 -11 -4 5 16 3 18 -11 13 -9 -4 -15 -3 -11 2 3 5 1 12 -5 16 -6 4 -7
12 -3 18 7 12 9 17 12 36 1 10 41 8 58 -2 21 -13 24 26 3 48 -21 22 -27 41
-10 30 6 -3 10 -1 10 4 0 6 5 11 11 11 8 0 7 -5 -1 -15 -10 -12 -10 -19 -2
-27 14 -14 55 -22 47 -9 -3 5 0 13 5 16 7 5 5 12 -7 21 -10 7 -13 14 -8 15 6
0 -1 5 -15 10 l-25 8 25 -2 c14 -1 23 -6 22 -11 -6 -15 21 -25 39 -16 17 10
49 -15 49 -38 0 -6 9 -13 19 -17 11 -3 18 -12 15 -18 -2 -8 4 -13 17 -14 15
-1 18 1 10 10 -7 9 0 12 27 12 30 0 37 -4 35 -18 -1 -13 4 -17 14 -13 9 4 22
1 29 -5 10 -8 14 -8 14 0 0 6 -4 11 -10 11 -5 0 -7 6 -4 14 3 8 0 17 -5 21 -6
3 -8 11 -5 17 4 6 2 8 -3 5 -6 -4 -14 0 -17 9 -3 8 -10 13 -15 10 -5 -3 -14 0
-20 8 -12 14 -2 27 30 39 9 3 19 15 22 26 3 13 1 19 -5 15 -6 -4 -2 6 8 22 25
41 26 41 22 19 -2 -13 2 -19 10 -17 8 1 11 -2 8 -7 -3 -5 1 -14 9 -21 12 -10
15 -10 15 3 0 9 4 19 10 22 6 3 7 -1 4 -9 -8 -21 16 -20 31 1 11 15 12 13 11
-13 0 -16 -6 -35 -13 -42 -10 -11 -9 -19 8 -42 21 -28 19 -50 -4 -50 -8 0 -7
3 2 9 9 6 3 8 -19 7 -23 -1 -36 -9 -46 -26 -16 -30 -18 -48 -3 -33 6 6 19 9
28 6 12 -3 11 -1 -3 11 -11 9 -14 16 -7 16 7 0 9 5 5 11 -3 6 5 4 18 -5 23
-15 27 -15 50 3 18 14 28 17 39 9 11 -8 11 -9 -3 -5 -12 4 -16 0 -15 -14 1
-10 7 -19 15 -19 7 0 10 5 7 10 -3 6 1 10 9 10 10 0 13 6 9 17 -5 12 -3 14 7
8 9 -5 11 -4 6 3 -4 7 -3 12 2 12 5 0 23 31 39 68 27 62 29 70 14 79 -14 10
-14 11 4 10 13 -2 20 4 19 16 -1 9 2 17 6 17 6 0 31 68 35 100 1 8 5 22 8 30
13 34 28 130 34 212 5 81 4 90 -20 130 -42 71 -74 93 -339 230 -116 59 -212
108 -214 108 -15 0 1 -28 24 -43 l27 -18 -36 7 c-20 3 -46 1 -57 -5 -16 -8
-23 -6 -38 11 -11 11 -35 28 -54 36 -27 12 -31 17 -17 20 11 2 16 9 13 18 -7
18 8 18 45 -2 17 -8 40 -14 51 -12 16 2 2 16 -63 59 -46 31 -108 77 -136 103
-29 27 -53 43 -53 38 0 -6 11 -19 23 -29 l24 -18 -43 0 c-29 1 -51 8 -66 22
-13 11 -32 25 -43 31 -18 10 -18 11 -2 12 15 0 16 3 6 22 l-11 21 36 -22 c52
-33 74 -24 38 14 -69 73 -146 207 -177 307 -10 31 -22 55 -27 52 -5 -3 -6 -14
-3 -23 3 -11 0 -18 -9 -18 -8 0 -17 14 -20 30 -7 34 2 56 15 36 16 -26 20 0
10 57 -6 33 -13 88 -16 124 -4 36 -9 67 -12 70 -7 8 -275 9 -298 1z m153 -71
c-1 -44 -18 -48 -18 -6 0 20 4 36 9 36 5 0 9 -14 9 -30z m-116 -20 c-9 -17
-21 -30 -25 -30 -5 0 -6 4 -3 9 3 4 10 20 16 35 5 15 14 25 19 21 6 -3 3 -18
-7 -35z m235 0 c15 -39 3 -39 -19 0 -12 21 -13 30 -5 30 7 0 18 -13 24 -30z
m-177 -37 c0 -20 -13 -53 -21 -53 -6 0 -6 44 0 58 3 6 21 1 21 -5z m126 -27
c1 -15 -3 -29 -7 -32 -5 -3 -9 1 -9 8 0 7 -3 24 -7 37 -4 18 -2 22 8 19 8 -3
14 -17 15 -32z m-60 -103 c-3 -8 -6 -21 -6 -29 0 -27 -18 -14 -22 16 -5 35 -2
41 19 33 8 -3 12 -12 9 -20z m-174 -34 c-4 -13 -12 -25 -18 -26 -13 -3 -13 45
0 66 13 21 27 -9 18 -40z m93 -58 c-1 -14 -6 -26 -12 -28 -14 -5 -22 50 -8 64
13 14 23 -3 20 -36z m157 -3 c-3 -16 -9 -27 -15 -25 -12 4 -18 35 -11 59 9 29
31 -1 26 -34z m-295 -139 c-9 -12 -28 -23 -43 -25 -24 -3 -25 -2 -10 15 9 10
13 21 10 24 -4 4 4 15 17 26 23 19 24 19 33 1 5 -12 3 -26 -7 -41z m217 43
c-1 -7 -2 -21 -2 -31 -1 -10 -8 -21 -14 -24 -12 -4 -15 24 -9 66 2 13 26 2 25
-11z m243 -48 c9 -30 8 -32 -7 -24 -10 5 -20 7 -23 3 -4 -3 -12 6 -18 21 -7
14 -16 26 -21 26 -4 0 -3 9 4 19 11 18 13 18 33 3 12 -9 26 -31 32 -48z m-335
-46 c-7 -7 -12 -19 -12 -28 0 -9 -8 -16 -18 -16 -14 0 -17 6 -14 30 7 43 23
58 42 40 11 -11 12 -16 2 -26z m182 29 c7 -7 15 -26 18 -43 3 -24 0 -30 -14
-30 -10 0 -18 7 -18 16 0 9 -6 22 -12 29 -11 11 -10 14 0 18 6 3 10 9 6 14 -8
13 5 11 20 -4z m-83 -137 c13 -9 -5 -65 -21 -65 -23 0 -31 53 -12 76 12 14 18
16 21 7 2 -7 7 -15 12 -18z m-159 -90 c7 0 2 -10 -10 -23 -12 -13 -22 -28 -22
-33 0 -6 -16 -10 -35 -10 -35 1 -44 9 -25 21 6 3 10 15 10 26 0 10 7 19 15 19
8 0 23 9 33 20 l17 21 3 -21 c2 -11 8 -20 14 -20z m344 0 c5 0 14 -15 19 -33
11 -32 10 -33 -20 -33 -23 0 -35 8 -52 33 -12 18 -18 33 -13 33 6 0 10 10 10
22 l0 21 23 -21 c13 -12 28 -22 33 -22z m-196 -110 c0 -6 12 -15 26 -20 22 -9
24 -13 14 -25 -7 -8 -10 -24 -7 -35 6 -23 3 -24 -23 -10 -12 6 -28 7 -43 1
-21 -8 -23 -7 -20 14 3 12 0 26 -6 29 -18 11 -13 26 9 26 11 0 23 7 26 15 7
17 24 20 24 5z m-296 -95 c-4 -10 0 -15 15 -15 27 0 27 -17 0 -25 -11 -4 -24
-18 -29 -31 -8 -20 -13 -22 -35 -14 -14 5 -40 7 -57 4 -24 -4 -29 -3 -19 4 8
6 15 21 16 34 1 18 8 24 33 26 17 2 36 10 42 18 16 19 41 18 34 -1z m602 1
c11 -8 33 -16 49 -18 25 -2 29 -7 27 -25 -2 -13 2 -23 7 -23 6 0 11 -5 11 -11
0 -7 -10 -9 -24 -5 -14 3 -36 2 -51 -4 -22 -9 -27 -7 -35 15 -5 14 -13 25 -18
25 -4 0 -17 7 -28 15 -10 8 -14 15 -9 14 31 -4 47 2 41 16 -7 19 4 19 30 1z
m-296 -152 c7 -16 17 -24 34 -24 34 0 40 -14 16 -35 -16 -14 -19 -26 -14 -52
7 -36 -1 -41 -31 -19 -17 12 -23 12 -47 0 -38 -19 -40 -18 -33 19 5 25 2 37
-14 51 -21 19 -28 37 -13 35 32 -5 52 4 63 30 15 33 26 31 39 -5z m848 -45
c10 -1 23 -1 30 0 17 3 15 -17 -4 -36 -11 -11 -14 -26 -9 -50 7 -37 6 -38 -29
-22 -20 10 -30 9 -50 -5 -35 -22 -38 -21 -32 15 4 25 -1 36 -22 55 l-27 23 32
7 c25 5 35 14 45 40 l12 34 19 -30 c10 -17 26 -31 35 -31z m-1625 -13 l31 -6
-27 -28 c-20 -20 -25 -35 -22 -55 6 -32 3 -33 -31 -11 -20 14 -30 15 -50 5
-35 -16 -36 -15 -29 19 5 21 1 37 -13 57 l-20 28 32 2 c20 2 38 12 50 29 l20
27 14 -31 c10 -20 24 -32 45 -36z m392 -76 c11 -21 26 -33 46 -37 l30 -6 -26
-27 c-20 -21 -25 -33 -19 -54 7 -30 -2 -33 -34 -11 -16 12 -27 13 -41 5 -33
-17 -43 -12 -36 18 4 20 0 36 -15 55 l-21 27 25 0 c26 0 66 31 66 50 0 18 9
11 25 -20z m783 -17 c9 -7 27 -13 41 -13 l24 0 -22 -24 c-18 -19 -21 -31 -16
-55 7 -33 -5 -40 -34 -22 -10 6 -25 4 -42 -5 -38 -19 -40 -18 -34 13 3 20 -2
35 -22 55 -15 16 -21 29 -15 29 7 1 17 3 22 4 6 1 16 3 23 4 7 0 18 16 25 34
12 30 13 31 24 12 6 -11 18 -26 26 -32z m-397 -191 c10 -18 25 -28 44 -30 38
-3 38 -4 10 -34 -24 -26 -25 -57 -1 -87 6 -8 -6 -5 -31 7 -41 21 -79 21 -66
-1 3 -6 1 -7 -5 -3 -6 4 -22 1 -34 -5 -20 -10 -21 -10 -12 2 6 8 14 26 18 41
5 21 0 32 -21 53 l-28 25 28 0 c26 0 67 30 67 50 0 19 15 10 31 -18z m-818
-66 l32 -7 -32 -25 c-24 -18 -33 -34 -33 -55 0 -34 -6 -36 -35 -9 -17 16 -27
18 -53 11 -18 -5 -32 -8 -32 -7 0 2 5 17 11 34 8 25 7 35 -6 56 l-17 26 35 0
c27 0 39 6 52 27 l18 27 14 -36 c11 -28 22 -37 46 -42z m1727 24 l31 0 -18
-30 c-15 -25 -15 -34 -5 -51 18 -28 7 -40 -26 -28 -18 7 -28 7 -30 0 -2 -6 -8
-11 -14 -11 -15 0 -38 -27 -30 -35 4 -5 2 -5 -5 -1 -7 4 -10 13 -6 21 3 9 -1
23 -8 32 -10 12 -10 15 -1 9 25 -15 11 14 -19 37 l-32 25 36 11 c27 9 36 18
41 44 l7 32 24 -27 c17 -19 34 -28 55 -28z m-1306 -103 c4 4 4 -1 0 -12 -6
-14 -4 -17 8 -12 21 7 56 -17 39 -27 -6 -4 -8 -12 -5 -18 5 -7 2 -8 -6 -3 -17
10 -30 -12 -30 -54 0 -32 -1 -33 -18 -18 -10 10 -22 14 -25 10 -4 -3 -7 -1 -7
6 0 18 -50 5 -67 -17 -10 -13 -10 -7 1 30 13 44 12 49 -5 69 -10 12 -19 25
-19 29 0 14 14 19 26 10 18 -16 37 -8 58 25 l19 30 12 -28 c6 -15 15 -24 19
-20z m807 14 c12 -20 24 -28 40 -27 37 3 41 -3 21 -32 -18 -26 -19 -68 -2 -57
5 3 12 0 16 -6 4 -8 3 -9 -4 -5 -15 9 -16 -6 -2 -20 6 -6 3 -10 -9 -10 -11 0
-18 3 -15 7 10 16 -48 18 -72 3 -24 -16 -26 -16 -42 1 -9 10 -11 15 -4 11 8
-5 12 1 12 19 0 17 -8 29 -25 37 -33 15 -32 24 5 37 20 7 34 21 41 41 13 37
20 37 40 1z m-921 -101 c0 -5 -5 -10 -11 -10 -5 0 -7 5 -4 10 3 6 8 10 11 10
2 0 4 -4 4 -10z m-585 -19 c3 -5 2 -12 -3 -15 -5 -3 -9 1 -9 9 0 17 3 19 12 6z
m80 -1 c3 -5 1 -10 -4 -10 -6 0 -11 5 -11 10 0 6 2 10 4 10 3 0 8 -4 11 -10z
m85 6 c0 -3 -4 -8 -10 -11 -5 -3 -10 -1 -10 4 0 6 5 11 10 11 6 0 10 -2 10 -4z
m195 -6 c3 -5 1 -10 -4 -10 -6 0 -11 5 -11 10 0 6 2 10 4 10 3 0 8 -4 11 -10z
m160 0 c3 -5 1 -10 -4 -10 -6 0 -11 5 -11 10 0 6 2 10 4 10 3 0 8 -4 11 -10z
m360 1 c3 -5 2 -12 -3 -15 -5 -3 -9 1 -9 9 0 17 3 19 12 6z m40 -1 c3 -5 1
-10 -4 -10 -6 0 -11 5 -11 10 0 6 2 10 4 10 3 0 8 -4 11 -10z m125 0 c0 -5 -5
-10 -11 -10 -5 0 -7 5 -4 10 3 6 8 10 11 10 2 0 4 -4 4 -10z m120 0 c0 -5 -2
-10 -4 -10 -3 0 -8 5 -11 10 -3 6 -1 10 4 10 6 0 11 -4 11 -10z m80 0 c0 -5
-5 -10 -11 -10 -5 0 -7 5 -4 10 3 6 8 10 11 10 2 0 4 -4 4 -10z m75 0 c3 -5 1
-10 -4 -10 -6 0 -11 5 -11 10 0 6 2 10 4 10 3 0 8 -4 11 -10z m318 -15 c-7
-21 -12 -19 -10 4 0 11 5 18 9 15 4 -3 5 -11 1 -19z m44 3 c2 -17 0 -19 -7 -8
-5 8 -6 18 -4 22 8 12 10 10 11 -14z m78 12 c3 -5 1 -10 -4 -10 -6 0 -11 5
-11 10 0 6 2 10 4 10 3 0 8 -4 11 -10z m160 1 c-9 -8 -36 -10 -30 -2 2 4 11 8
20 8 8 0 13 -3 10 -6z m61 -3 c3 -4 -1 -5 -10 -4 -8 1 -18 5 -22 8 -3 4 1 5
10 4 8 -1 18 -5 22 -8z m104 2 c0 -5 -5 -10 -11 -10 -5 0 -7 5 -4 10 3 6 8 10
11 10 2 0 4 -4 4 -10z m155 1 c3 -5 2 -12 -3 -15 -5 -3 -9 1 -9 9 0 17 3 19
12 6z m-1935 -5 c0 -2 -8 -10 -17 -17 -16 -13 -17 -12 -4 4 13 16 21 21 21 13z
m-85 -15 c3 -5 2 -12 -3 -15 -5 -3 -9 1 -9 9 0 17 3 19 12 6z m339 1 c3 -5 -1
-9 -9 -9 -8 0 -12 4 -9 9 3 4 7 8 9 8 2 0 6 -4 9 -8z m266 4 c0 -2 -7 -7 -16
-10 -8 -3 -12 -2 -9 4 6 10 25 14 25 6z m134 -4 c3 -5 -1 -9 -9 -9 -8 0 -12 4
-9 9 3 4 7 8 9 8 2 0 6 -4 9 -8z m1061 -10 c-3 -3 -11 0 -18 7 -9 10 -8 11 6
5 10 -3 15 -9 12 -12z m-955 4 c0 -2 -8 -10 -17 -17 -16 -13 -17 -12 -4 4 13
16 21 21 21 13z m-883 -21 c0 -8 -4 -12 -9 -9 -5 3 -6 10 -3 15 9 13 12 11 12
-6z m168 5 c3 -6 -1 -7 -9 -4 -18 7 -21 14 -7 14 6 0 13 -4 16 -10z m75 -4 c0
-2 -8 -10 -17 -17 -16 -13 -17 -12 -4 4 13 16 21 21 21 13z m118 -21 c-3 -3
-9 2 -12 12 -6 14 -5 15 5 6 7 -7 10 -15 7 -18z m982 21 c0 -2 -8 -10 -17 -17
-16 -13 -17 -12 -4 4 13 16 21 21 21 13z m120 0 c0 -2 -8 -10 -17 -17 -16 -13
-17 -12 -4 4 13 16 21 21 21 13z m34 -26 c-6 -6 -10 -3 -10 10 0 13 4 16 10
10 7 -7 7 -13 0 -20z m383 17 c0 -8 -6 -14 -14 -14 -9 0 -10 4 -2 14 6 7 12
13 14 13 1 0 2 -6 2 -13z m-2153 -5 c3 -5 -1 -9 -9 -9 -8 0 -12 4 -9 9 3 4 7
8 9 8 2 0 6 -4 9 -8z m36 -17 c14 -19 14 -19 -2 -6 -10 7 -18 18 -18 24 0 6 1
8 3 6 1 -2 9 -13 17 -24z m51 2 c-10 -9 -11 -8 -5 6 3 10 9 15 12 12 3 -3 0
-11 -7 -18z m229 19 c0 -3 -4 -8 -10 -11 -5 -3 -10 -1 -10 4 0 6 5 11 10 11 6
0 10 -2 10 -4z m64 -4 c3 -5 -1 -9 -9 -9 -8 0 -12 4 -9 9 3 4 7 8 9 8 2 0 6
-4 9 -8z m496 -17 c14 -19 14 -19 -2 -6 -10 7 -18 18 -18 24 0 6 1 8 3 6 1 -2
9 -13 17 -24z m451 2 c-10 -9 -11 -8 -5 6 3 10 9 15 12 12 3 -3 0 -11 -7 -18z
m310 10 c-6 -8 -9 -16 -6 -19 3 -2 -2 -5 -10 -5 -13 0 -13 3 2 19 19 21 31 25
14 5z m25 -15 c-17 -16 -18 -16 -5 5 7 12 15 20 18 17 3 -2 -3 -12 -13 -22z
m334 3 c14 -19 14 -19 -2 -6 -10 7 -18 18 -18 24 0 6 1 8 3 6 1 -2 9 -13 17
-24z m57 10 c0 -8 -4 -12 -9 -9 -5 3 -6 10 -3 15 9 13 12 11 12 -6z m197 7 c3
-5 -1 -9 -9 -9 -8 0 -12 4 -9 9 3 4 7 8 9 8 2 0 6 -4 9 -8z m-1074 -13 c0 -6
7 -8 16 -5 14 5 15 4 4 -9 -9 -11 -9 -15 -1 -15 7 0 10 -4 7 -8 -9 -15 51 -12
64 3 14 17 30 20 30 4 0 -5 -4 -8 -9 -5 -5 3 -14 -1 -21 -9 -7 -8 -9 -15 -6
-15 4 0 -5 -12 -19 -27 l-25 -28 22 -17 c20 -15 24 -16 34 -3 6 8 15 15 19 15
4 0 1 -8 -6 -17 -12 -15 -12 -16 4 -10 10 4 27 2 37 -3 13 -7 21 -7 25 0 3 5
12 10 18 10 7 0 4 -5 -6 -11 -14 -8 -15 -14 -6 -30 8 -16 13 -18 25 -8 8 6 14
16 14 21 0 6 -7 5 -15 -2 -8 -7 -15 -8 -15 -3 0 8 51 43 64 43 3 0 17 -12 31
-27 25 -27 37 -20 13 7 -11 12 -10 12 5 1 14 -11 20 -11 32 -1 13 10 18 11 28
1 9 -10 9 -11 -3 -6 -11 4 -15 -2 -15 -25 -1 -35 -4 -34 40 -16 18 8 35 13 37
11 2 -2 4 5 5 15 2 24 -15 36 -30 21 -8 -8 -6 -11 9 -11 19 -1 19 -1 -1 -12
-27 -16 -45 -18 -45 -6 0 6 7 7 16 4 11 -4 14 -1 9 13 -6 19 18 36 36 25 5 -3
19 2 31 10 l22 16 -22 0 c-15 0 -21 -4 -16 -12 4 -7 3 -8 -5 -4 -16 10 -4 26
19 26 22 0 35 -16 21 -25 -6 -3 -4 -13 6 -24 12 -15 25 -18 52 -14 61 8 67 12
44 28 -12 8 -28 12 -37 9 -9 -3 -16 -1 -16 6 0 6 4 9 9 5 6 -3 14 3 20 12 8
14 10 15 11 3 0 -8 14 -26 30 -40 16 -14 30 -29 30 -34 0 -4 -6 -3 -14 3 -7 6
-21 8 -30 5 -24 -9 -50 -62 -37 -77 5 -7 11 -16 13 -22 1 -5 7 -9 11 -7 4 1 1
-11 -8 -27 -18 -36 -19 -42 -4 -39 6 2 14 -4 16 -12 4 -12 3 -12 -5 -2 -7 11
-10 11 -15 -2 -4 -9 -12 -16 -18 -16 -8 0 -8 4 1 15 9 10 9 15 1 15 -11 0 -15
-13 -11 -39 1 -12 -1 -13 -14 -2 -12 10 -20 9 -41 -6 -14 -10 -28 -28 -31 -40
l-6 -23 -25 20 c-14 11 -29 17 -34 14 -5 -3 -9 -1 -9 4 0 19 14 21 37 7 13 -9
23 -11 23 -5 0 6 13 18 29 28 21 13 27 22 21 32 -9 15 -4 30 10 30 5 0 7 -9 5
-20 -2 -11 0 -20 6 -20 9 0 13 15 10 34 -1 5 5 6 13 3 10 -4 20 2 27 15 7 13
7 18 1 14 -6 -3 -13 -2 -17 4 -9 15 -28 12 -22 -3 3 -8 -3 -14 -15 -14 -16 -2
-17 1 -8 13 7 8 9 14 4 14 -5 0 -18 -13 -29 -29 -20 -31 -38 -33 -28 -3 4 13
2 13 -10 -3 l-16 -20 2 20 c1 11 5 22 9 25 10 8 14 28 5 28 -5 1 -17 12 -28
27 -19 23 -47 27 -33 4 3 -5 11 -6 17 -2 7 4 5 -2 -3 -12 -14 -17 -13 -18 2
-12 9 3 22 0 28 -8 10 -11 7 -13 -17 -9 -21 3 -24 2 -13 -6 12 -8 10 -9 -10
-6 -14 2 -24 9 -22 15 1 6 -3 11 -9 11 -6 0 -8 -8 -5 -17 5 -16 4 -15 -9 1 -8
10 -12 23 -9 27 11 19 -8 8 -32 -18 -14 -15 -22 -19 -18 -10 3 10 1 17 -5 17
-6 0 -10 -5 -8 -11 1 -6 -9 -13 -23 -15 -20 -3 -22 -2 -10 6 11 8 6 9 -20 5
-25 -4 -31 -3 -20 5 13 8 12 10 -4 10 -12 0 -16 -5 -13 -14 3 -8 -2 -20 -11
-28 -13 -11 -15 -11 -7 2 6 12 6 13 -6 2 -12 -11 -12 -14 1 -22 8 -5 13 -10
10 -11 -3 0 -13 -2 -22 -4 -22 -4 -23 4 -1 35 17 24 16 25 -2 10 -10 -8 -16
-10 -12 -3 5 8 1 11 -13 8 -14 -3 -18 0 -13 8 5 9 3 9 -8 0 -12 -10 -18 -10
-29 0 -10 10 -11 9 -5 -3 8 -13 7 -13 -10 0 -17 13 -18 13 -11 0 4 -8 0 -6 -8
4 -9 11 -16 15 -16 9 0 -15 25 -34 34 -26 4 4 4 -1 1 -12 -6 -16 -5 -17 4 -5
10 15 12 13 15 -12 0 -6 12 -13 26 -15 13 -2 28 -9 32 -16 6 -9 8 -9 8 1 0 11
3 10 14 -1 8 -8 27 -13 41 -12 16 2 25 -1 22 -8 -6 -19 -38 -15 -84 9 -24 13
-43 18 -43 13 0 -5 -5 -9 -11 -9 -5 0 -7 5 -3 12 5 8 2 9 -10 5 -9 -4 -15 -3
-12 1 2 4 -2 16 -10 27 -9 12 -14 14 -14 5 0 -9 -5 -7 -15 6 -13 16 -14 16 -9
2 7 -21 -6 -24 -24 -6 -9 9 -12 9 -12 0 0 -7 -3 -11 -7 -11 -21 3 -29 -3 -30
-22 -3 -32 -22 -50 -43 -39 -9 5 -20 6 -24 3 -3 -3 -6 -2 -6 4 0 17 12 23 31
13 12 -7 20 -6 25 2 4 7 3 8 -4 4 -7 -4 -12 -5 -12 -2 0 2 -3 13 -6 23 -6 15
-4 16 7 6 7 -7 18 -13 23 -13 6 0 4 5 -4 10 -10 6 -11 10 -2 10 6 0 12 5 12
11 0 8 -4 8 -14 0 -10 -8 -16 -8 -25 2 -6 8 -8 17 -4 20 3 4 1 7 -6 7 -7 0 -9
5 -5 11 4 8 9 7 16 -2 8 -11 9 -11 5 1 -6 24 -32 18 -30 -7 1 -11 -4 -27 -12
-33 -10 -8 -15 -9 -15 -2 0 6 4 13 10 17 14 9 0 37 -16 31 -7 -3 -17 2 -22 11
-6 11 -11 12 -16 4 -4 -6 -2 -11 4 -11 6 0 8 -5 4 -11 -4 -8 -9 -7 -15 2 -5 9
-9 9 -9 3 0 -7 -12 -19 -26 -29 -15 -9 -23 -11 -19 -4 6 8 4 10 -5 4 -9 -6
-11 -4 -5 5 5 9 4 11 -3 6 -8 -5 -10 -1 -6 11 6 16 4 15 -10 -2 -10 -11 -14
-13 -10 -5 7 13 6 13 -11 0 -17 -13 -18 -13 -10 0 7 12 6 13 -6 3 -13 -10 -15
-8 -15 12 0 14 4 25 9 25 4 0 5 4 2 10 -3 5 5 15 19 22 14 6 26 15 26 19 0 13
-39 6 -44 -8 -3 -7 -11 -11 -18 -9 -7 1 -10 1 -5 -1 4 -3 7 -12 7 -21 0 -15
-2 -15 -10 -2 -7 11 -10 11 -10 2 0 -7 -4 -11 -9 -8 -14 9 -32 -20 -24 -39 4
-12 3 -16 -4 -12 -6 4 -10 -4 -9 -20 1 -18 -5 -27 -16 -29 -18 -2 -25 12 -9
18 5 2 -2 12 -17 22 -14 11 -22 14 -18 8 3 -6 2 -14 -4 -17 -8 -5 -7 -11 1
-21 8 -10 8 -14 0 -14 -6 0 -11 4 -11 9 0 4 -8 7 -17 6 -29 -3 -53 -16 -47
-26 3 -5 0 -9 -5 -9 -6 0 -11 4 -11 10 0 5 -15 0 -34 -11 -28 -16 -38 -18 -60
-8 -22 11 -28 9 -45 -12 -18 -22 -20 -23 -38 -8 -10 9 -23 14 -30 12 -6 -2
-14 0 -17 6 -4 6 -12 8 -20 5 -7 -3 -13 2 -13 11 0 9 6 14 14 10 7 -3 20 -8
28 -11 10 -4 15 0 15 10 0 9 5 16 11 16 5 0 7 -4 4 -10 -3 -5 -1 -18 4 -27 6
-10 11 -13 11 -6 0 7 6 10 13 7 8 -3 20 2 27 11 10 12 16 13 26 4 11 -9 14 -8
14 0 0 7 5 9 10 6 6 -4 8 -12 4 -18 -3 -7 2 -3 10 7 12 15 16 16 16 5 0 -10 2
-11 8 -2 4 7 19 14 32 16 18 3 24 10 22 23 -3 15 -1 16 9 7 9 -9 16 -10 26 -2
10 9 13 8 13 -2 1 -9 4 -8 11 4 13 22 6 32 -13 21 -24 -15 -37 -12 -35 7 1 10
4 19 8 19 16 0 18 35 3 58 -9 13 -12 27 -7 31 10 7 10 18 -1 44 -10 20 0 51
13 43 5 -4 12 -1 14 4 3 6 4 5 2 -2 -1 -7 -8 -12 -14 -10 -6 1 -11 -8 -11 -20
0 -20 1 -20 19 -4 11 10 25 15 32 10 9 -5 10 -2 5 12 -5 14 -4 16 4 8 9 -9 8
-17 -2 -33 -7 -11 -17 -21 -22 -21 -4 0 -3 7 4 15 8 9 9 15 2 15 -21 0 -38
-45 -21 -56 5 -3 9 1 9 8 0 10 3 9 10 -2 8 -12 10 -12 16 3 3 9 12 17 20 17 8
0 14 11 15 28 0 24 1 25 9 7 5 -11 9 -16 9 -11 1 5 7 3 14 -3 10 -8 19 -7 33
4 10 8 26 15 34 15 8 0 -1 -8 -19 -18 -41 -22 -58 -57 -34 -70 19 -11 55 -4
47 10 -3 5 -12 4 -20 -3 -11 -9 -14 -9 -14 0 0 7 -5 9 -12 5 -7 -4 -8 -3 -4 4
4 6 14 8 24 5 15 -6 16 -5 2 12 -8 10 -10 16 -3 12 6 -4 13 -4 16 0 2 5 2 3 1
-4 -4 -17 16 -28 51 -28 23 0 30 -4 28 -18 -1 -13 3 -16 15 -11 10 4 25 6 35
6 15 -1 16 2 6 14 -8 10 -15 12 -22 5 -7 -7 -18 1 -34 24 -27 40 -24 53 13 53
17 0 22 -3 13 -8 -6 -5 -19 -6 -27 -3 -11 5 -11 0 2 -26 9 -17 21 -31 27 -31
6 0 7 6 3 13 -4 6 1 5 12 -4 14 -12 39 -15 99 -15 85 2 110 9 101 32 -3 8 0
14 7 15 7 0 3 4 -8 9 -14 6 -15 9 -5 10 13 0 12 3 -2 13 -9 7 -18 22 -20 32
-2 16 3 20 26 19 22 0 33 7 45 28 16 29 31 37 31 17z m-1016 -7 c2 -4 -4 -8
-14 -8 -10 0 -16 4 -14 8 3 4 9 8 14 8 5 0 11 -4 14 -8z m88 0 c-18 -12 5 -75
25 -68 8 3 12 2 8 -3 -3 -5 0 -11 7 -13 8 -3 5 -14 -10 -35 -24 -33 -28 -48
-12 -38 6 3 10 1 10 -5 0 -6 4 -9 10 -5 5 3 7 11 4 18 -3 8 2 27 11 43 9 18
15 23 15 12 0 -9 -4 -20 -10 -23 -13 -8 -13 -35 1 -35 5 0 8 4 5 9 -3 5 1 14
9 21 10 9 15 9 15 1 0 -6 -6 -11 -12 -11 -7 0 1 -13 17 -29 20 -18 33 -24 37
-17 12 17 9 26 -6 20 -8 -3 -17 0 -21 6 -9 15 13 40 34 39 13 -1 13 -2 -2 -6
-9 -2 -15 -9 -11 -14 3 -5 10 -7 15 -3 5 3 17 0 25 -7 21 -17 22 -9 4 26 -8
17 -23 30 -33 30 -9 0 -17 4 -16 9 0 5 -5 12 -11 16 -8 5 -7 9 3 13 12 4 15 0
12 -15 -3 -16 0 -19 16 -15 15 4 23 -3 34 -30 8 -19 19 -32 25 -28 6 4 18 1
27 -6 13 -11 17 -10 29 6 8 10 14 13 14 6 0 -7 5 -9 12 -5 6 4 8 3 5 -3 -4 -6
1 -17 10 -24 14 -12 15 -11 9 9 -4 12 -3 22 2 22 13 0 5 -56 -13 -102 -8 -19
18 -19 38 1 9 10 8 11 -5 6 -21 -8 -22 1 -4 34 l13 24 18 -27 c16 -25 16 -28
1 -45 -9 -9 -13 -21 -9 -24 3 -4 1 -7 -4 -7 -6 0 -10 -10 -9 -23 2 -18 -2 -23
-18 -22 -11 1 -22 8 -24 15 -3 9 1 11 14 7 14 -5 13 -2 -5 10 -27 19 -63 25
-54 9 3 -6 3 -8 -2 -4 -4 4 -17 3 -28 -3 -15 -9 -18 -8 -11 3 6 11 5 11 -9 -1
-9 -7 -18 -11 -18 -7 -5 23 -3 32 6 38 5 4 -3 6 -19 4 -15 -2 -31 -7 -34 -13
-4 -6 -15 -9 -25 -7 -10 1 -14 -2 -11 -8 4 -6 2 -8 -4 -4 -6 3 -14 2 -17 -4
-5 -8 -11 -8 -20 0 -15 13 -55 22 -54 12 3 -20 -3 -23 -18 -11 -17 13 -17 12
-4 -4 13 -16 13 -20 1 -27 -9 -5 -20 -4 -29 3 -8 7 -15 10 -15 8 -1 -3 -13 3
-28 13 -15 10 -25 23 -21 29 4 6 0 8 -9 4 -11 -4 -15 0 -14 10 3 20 -25 52
-39 45 -5 -3 -7 -1 -2 3 4 5 -1 18 -10 29 -17 20 -17 20 1 6 18 -14 18 -13 11
10 -4 14 -4 22 0 17 5 -4 9 -17 10 -29 1 -12 7 -24 13 -26 7 -2 9 6 6 21 -2
15 4 34 16 50 22 28 28 63 8 51 -8 -5 -9 -2 -5 9 3 9 -1 24 -11 34 -16 16 -16
16 3 9 11 -4 25 -9 30 -10 6 -1 16 -5 22 -9 8 -5 22 2 35 16 13 14 32 25 43
26 14 0 16 -2 7 -7z m780 -18 c-9 -12 -19 -20 -21 -18 -2 2 1 10 7 17 7 8 10
16 7 19 -3 2 1 5 9 5 12 0 11 -5 -2 -23z m325 8 c-17 -18 -51 -27 -41 -10 3 5
9 6 14 3 4 -3 13 2 20 10 7 8 15 15 18 15 3 0 -2 -8 -11 -18z m160 0 c-17 -19
-57 -27 -57 -12 0 5 9 7 19 5 11 -2 25 3 32 11 6 8 14 14 17 14 3 0 -2 -8 -11
-18z m280 -2 c-28 -23 -37 -25 -37 -9 0 5 4 8 9 5 5 -3 14 1 21 9 7 8 17 15
23 15 5 0 -2 -9 -16 -20z m120 2 c-17 -18 -51 -27 -41 -10 3 5 9 6 14 3 4 -3
13 2 20 10 7 8 15 15 18 15 3 0 -2 -8 -11 -18z m399 -20 c-2 -9 -8 -17 -15
-18 -6 -1 -7 0 -2 2 5 3 7 17 5 32 -3 19 -2 23 5 13 5 -7 8 -21 7 -29z m35 21
c13 -17 13 -17 -6 -3 -11 8 -22 16 -24 17 -2 2 0 3 6 3 6 0 17 -8 24 -17z
m-1957 -22 c-2 -3 -12 3 -22 13 -16 17 -16 18 5 5 12 -7 20 -15 17 -18z m96
14 c-7 -8 -17 -15 -23 -15 -6 0 -2 7 9 15 25 19 30 19 14 0z m64 -14 c-2 -3
-12 3 -22 13 -16 17 -16 18 5 5 12 -7 20 -15 17 -18z m326 0 c3 -2 -3 -1 -12
2 -9 3 -19 1 -21 -6 -3 -7 -4 -2 -4 10 1 21 7 20 37 -6z m706 20 c20 17 17 5
-4 -14 -17 -15 -18 -15 -19 6 0 12 1 16 4 9 4 -10 8 -10 19 -1z m110 -10 c0
-12 -6 -17 -18 -13 -18 4 -18 5 -1 18 10 7 18 14 18 14 1 0 1 -8 1 -19z m304
-10 c3 -2 -3 -1 -12 2 -9 3 -19 1 -21 -6 -3 -7 -4 -2 -4 10 1 21 7 20 37 -6z
m253 14 c-3 -9 -8 -14 -10 -11 -3 3 -2 9 2 15 9 16 15 13 8 -4z m-1603 -5 c-8
-5 -19 -10 -25 -10 -5 0 -3 5 5 10 8 5 20 10 25 10 6 0 3 -5 -5 -10z m73 -9
c3 -13 0 -18 -7 -15 -7 3 -13 11 -13 19 0 22 14 18 20 -4z m57 11 c0 -5 -7 -9
-15 -9 -8 0 -12 4 -9 9 3 4 9 8 15 8 5 0 9 -4 9 -8z m300 4 c0 -2 -7 -7 -16
-10 -8 -3 -12 -2 -9 4 6 10 25 14 25 6z m160 -6 c0 -5 -2 -10 -4 -10 -3 0 -8
5 -11 10 -3 6 -1 10 4 10 6 0 11 -4 11 -10z m160 0 c0 -5 -4 -10 -10 -10 -5 0
-10 5 -10 10 0 6 5 10 10 10 6 0 10 -4 10 -10z m437 -4 c-3 -8 -2 -17 4 -20 5
-2 4 -3 -2 -2 -15 3 -21 36 -7 36 6 0 8 -6 5 -14z m-1043 -18 c-5 -7 -2 -9 9
-5 11 4 14 2 10 -9 -3 -7 -9 -14 -13 -14 -10 0 -20 26 -13 34 10 10 15 7 7 -6z
m561 2 c-3 -5 -1 -10 4 -10 6 0 11 -5 11 -11 0 -8 -5 -8 -15 1 -13 11 -12 30
1 30 3 0 2 -4 -1 -10z m70 -23 c-15 -22 -45 -32 -45 -15 0 6 7 8 15 4 9 -3 15
0 15 9 0 8 5 15 11 15 5 0 7 5 3 12 -4 7 -3 8 5 4 8 -5 7 -13 -4 -29z m90 23
c-3 -5 -1 -10 4 -10 6 0 11 -8 11 -17 0 -15 -2 -14 -14 2 -13 18 -13 35 0 35
3 0 2 -4 -1 -10z m128 -7 c-3 -7 -9 -13 -13 -13 -4 0 -10 6 -13 13 -3 7 3 13
13 13 10 0 16 -6 13 -13z m397 11 c0 -8 -19 -13 -24 -6 -3 5 1 9 9 9 8 0 15
-2 15 -3z m-1529 -22 c-7 -2 -18 1 -23 6 -8 8 -4 9 13 5 13 -4 18 -8 10 -11z
m26 -3 c-4 -15 -2 -19 9 -15 8 3 14 1 14 -4 0 -11 -23 -14 -32 -4 -7 6 2 44 9
44 3 0 3 -9 0 -21z m460 15 c-3 -3 -12 -4 -19 -1 -8 3 -5 6 6 6 11 1 17 -2 13
-5z m753 -16 c0 -6 -6 -5 -15 2 -8 7 -15 14 -15 16 0 2 7 1 15 -2 8 -4 15 -11
15 -16z m184 -3 c3 -8 0 -17 -6 -21 -7 -4 -8 -3 -4 4 4 7 3 12 -2 12 -6 0 -12
7 -15 14 -4 10 -1 13 8 10 7 -3 16 -12 19 -19z m319 5 c3 -14 -1 -24 -15 -31
-23 -12 -49 3 -27 16 8 5 10 4 5 -3 -8 -13 -4 -15 17 -6 9 3 13 13 10 25 -3
10 -3 19 0 19 2 0 7 -9 10 -20z m-2213 -34 c0 -12 -5 -7 -19 24 -11 24 -11 24
3 6 9 -11 16 -24 16 -30z m60 40 c0 -2 -7 -7 -16 -10 -8 -3 -12 -2 -9 4 6 10
25 14 25 6z m240 -6 c0 -5 -4 -10 -10 -10 -5 0 -10 5 -10 10 0 6 5 10 10 10 6
0 10 -4 10 -10z m101 -3 c-7 -7 -14 -8 -21 -1 -6 6 -2 10 12 11 16 2 18 -1 9
-10z m160 0 c-7 -7 -14 -8 -21 -1 -6 6 -2 10 12 11 16 2 18 -1 9 -10z m99 1
c0 -10 -9 -9 -35 2 -17 8 -16 8 8 7 15 -1 27 -5 27 -9z m141 -1 c-6 -8 -8 -17
-4 -20 3 -4 1 -7 -5 -7 -15 0 -15 13 0 28 16 16 23 15 9 -1z m42 -2 c-3 -9 -8
-14 -10 -11 -3 3 -2 9 2 15 9 16 15 13 8 -4z m62 5 c3 -6 -1 -7 -9 -4 -18 7
-21 14 -7 14 6 0 13 -4 16 -10z m75 0 c0 -5 -5 -10 -11 -10 -5 0 -7 5 -4 10 3
6 8 10 11 10 2 0 4 -4 4 -10z m777 -5 c0 -8 -4 -12 -9 -9 -5 3 -6 10 -3 15 9
13 12 11 12 -6z m97 -17 c-3 -4 -11 -8 -17 -7 -9 0 -9 2 0 5 7 3 9 13 6 22 -4
14 -3 14 5 2 6 -8 8 -18 6 -22z m109 17 c-3 -9 -8 -14 -10 -11 -3 3 -2 9 2 15
9 16 15 13 8 -4z m287 5 c8 -5 11 -10 5 -10 -5 0 -17 5 -25 10 -8 5 -10 10 -5
10 6 0 17 -5 25 -10z m50 0 c0 -5 -4 -10 -10 -10 -5 0 -10 5 -10 10 0 6 5 10
10 10 6 0 10 -4 10 -10z m-1862 -11 c-2 -6 -8 -10 -13 -9 -6 1 -13 -9 -17 -22
-7 -22 -7 -22 -5 2 1 14 8 24 15 23 6 -2 12 2 12 7 0 6 3 10 6 10 3 0 4 -5 2
-11z m286 -16 c-12 -9 -20 -10 -22 -3 -2 5 -9 7 -14 4 -6 -4 -8 -2 -5 4 4 5
17 8 29 4 16 -4 19 -2 13 8 -6 9 -4 11 5 5 10 -6 9 -11 -6 -22z m173 -15 c2
-17 0 -19 -7 -8 -5 8 -6 18 -4 22 3 4 -2 8 -10 8 -9 0 -16 5 -16 10 0 22 36
-9 37 -32z m116 21 c-8 -8 -13 -7 -18 2 -5 8 -4 10 3 5 7 -4 12 -2 12 5 0 7 3
9 7 6 4 -4 2 -12 -4 -18z m263 10 c4 -8 9 -7 15 2 6 10 9 10 9 2 0 -19 -14
-22 -35 -7 -10 8 -14 14 -8 14 7 0 15 -5 19 -11z m154 -4 c8 0 19 5 23 10 5 6
7 4 5 -5 -3 -8 -15 -14 -28 -14 -13 0 -25 6 -28 14 -2 9 0 11 5 5 4 -5 15 -10
23 -10z m108 3 c-5 -14 -38 -20 -38 -6 0 6 7 8 15 4 8 -3 15 -1 15 4 0 6 3 10
6 10 3 0 4 -5 2 -12z m128 -1 c8 3 14 1 14 -5 0 -14 -33 -8 -36 7 -1 6 0 7 2
2 3 -6 12 -7 20 -4z m68 -3 c3 -8 2 -12 -4 -9 -6 3 -10 10 -10 16 0 14 7 11
14 -7z m261 6 c3 -5 1 -10 -4 -10 -6 0 -11 5 -11 10 0 6 2 10 4 10 3 0 8 -4
11 -10z m-1917 -21 c-7 -5 -14 -4 -16 1 -2 6 -9 7 -14 4 -6 -4 -8 -2 -5 4 4 5
16 8 28 5 16 -4 17 -8 7 -14z m1162 11 c0 -5 -4 -10 -10 -10 -5 0 -10 5 -10
10 0 6 5 10 10 10 6 0 10 -4 10 -10z m400 -15 c14 -19 14 -19 -2 -6 -10 7 -18
18 -18 24 0 6 1 8 3 6 1 -2 9 -13 17 -24z m-1613 -7 c-3 -8 -6 -5 -6 6 -1 11
2 17 5 13 3 -3 4 -12 1 -19z m293 1 c0 -6 -4 -7 -10 -4 -5 3 -10 11 -10 16 0
6 5 7 10 4 6 -3 10 -11 10 -16z m235 -41 c2 -10 0 -18 -5 -18 -5 0 -9 8 -9 18
1 9 -2 28 -5 42 l-7 25 12 -25 c6 -14 12 -33 14 -42z m796 37 c5 4 9 1 9 -5 0
-7 -8 -9 -19 -5 -11 3 -22 1 -26 -5 -3 -5 -12 -10 -18 -10 -7 0 -4 5 6 11 9 5
17 18 17 27 1 16 1 16 11 -1 6 -9 14 -15 20 -12z m209 21 c0 -2 -8 -10 -17
-17 -16 -13 -17 -12 -4 4 13 16 21 21 21 13z m353 -11 c-3 -9 -8 -14 -10 -11
-3 3 -2 9 2 15 9 16 15 13 8 -4z m319 -7 c-7 -7 -12 -8 -12 -2 0 14 12 26 19
19 2 -3 -1 -11 -7 -17z m48 10 c0 -7 -12 -22 -27 -32 -26 -20 -24 -8 6 25 20
22 21 22 21 7z m-1800 -11 c0 -5 -10 -5 -22 -1 -20 6 -21 5 -9 -10 9 -10 10
-16 2 -16 -6 0 -11 5 -11 11 0 5 -6 7 -12 3 -10 -6 -9 -3 0 8 14 17 52 21 52
5z m530 -2 c0 -1 -12 -2 -26 -2 -17 0 -22 2 -13 7 10 7 39 3 39 -5z m265 4
c11 -16 1 -19 -13 -3 -7 8 -8 14 -3 14 5 0 13 -5 16 -11z m129 3 c2 -4 -4 -8
-14 -8 -10 0 -16 4 -14 8 3 4 9 8 14 8 5 0 11 -4 14 -8z m109 -5 c4 3 7 1 7
-6 0 -8 -7 -10 -19 -6 -11 3 -22 1 -26 -5 -3 -5 -10 -10 -16 -10 -5 0 -1 8 9
18 10 11 21 15 28 10 6 -4 14 -5 17 -1z m456 3 c-6 -5 -19 -6 -27 -3 -12 5
-12 2 -3 -15 14 -26 14 -32 -1 -32 -6 0 -8 3 -5 7 4 3 2 12 -4 19 -15 18 -4
32 27 32 17 0 22 -3 13 -8z m-1909 -21 c0 -6 -4 -7 -10 -4 -5 3 -10 11 -10 16
0 6 5 7 10 4 6 -3 10 -11 10 -16z m1380 11 c0 -5 -4 -10 -10 -10 -5 0 -10 5
-10 10 0 6 5 10 10 10 6 0 10 -4 10 -10z m-1420 -21 c0 -6 -4 -7 -10 -4 -5 3
-10 11 -10 16 0 6 5 7 10 4 6 -3 10 -11 10 -16z m497 15 c-3 -3 -12 -4 -19 -1
-8 3 -5 6 6 6 11 1 17 -2 13 -5z m263 -20 c0 -22 -16 -17 -17 6 -1 11 2 18 8
15 5 -4 9 -13 9 -21z m90 16 c-20 -13 -33 -13 -25 0 3 6 14 10 23 10 15 0 15
-2 2 -10z m60 -14 c0 -15 -47 -19 -56 -4 -3 5 6 7 21 4 21 -4 25 -2 21 10 -3
9 -1 12 4 9 6 -3 10 -12 10 -19z m114 8 c8 -21 8 -24 -5 -24 -5 0 -7 5 -4 10
3 6 1 10 -4 10 -6 0 -11 -4 -11 -10 0 -5 -5 -10 -10 -10 -6 0 -5 8 2 20 15 24
24 25 32 4z m756 6 c0 -5 -4 -10 -10 -10 -5 0 -10 5 -10 10 0 6 5 10 10 10 6
0 10 -4 10 -10z m185 0 c-3 -5 -11 -10 -16 -10 -6 0 -7 5 -4 10 3 6 11 10 16
10 6 0 7 -4 4 -10z m230 0 c3 -5 2 -10 -4 -10 -5 0 -13 5 -16 10 -3 6 -2 10 4
10 5 0 13 -4 16 -10z m-1255 -15 c0 -8 -4 -15 -8 -15 -5 0 -9 7 -9 15 0 8 4
15 9 15 4 0 8 -7 8 -15z m32 8 c-6 -2 -10 -9 -6 -14 3 -5 0 -9 -5 -9 -12 0
-14 13 -4 23 3 4 11 7 17 6 6 0 5 -3 -2 -6z m656 -2 c11 -7 10 -9 -3 -14 -9
-4 -14 -3 -10 2 3 5 -1 12 -7 14 -7 3 -8 6 -3 6 6 0 16 -3 23 -8z m-843 -11
c3 -5 1 -10 -4 -10 -6 0 -11 5 -11 10 0 6 2 10 4 10 3 0 8 -4 11 -10z m1205 0
c0 -5 -4 -10 -10 -10 -5 0 -10 5 -10 10 0 6 5 10 10 10 6 0 10 -4 10 -10z m42
-33 c-2 -5 -10 0 -18 10 -20 26 -17 36 4 16 11 -10 17 -22 14 -26z m158 -45
c0 -4 -11 -19 -24 -34 -14 -14 -22 -29 -18 -34 4 -4 2 -4 -5 0 -6 3 -14 2 -18
-4 -3 -5 -11 -10 -16 -10 -6 0 -7 5 -3 12 4 7 3 8 -5 4 -6 -4 -9 -12 -6 -17 4
-5 1 -9 -5 -9 -7 0 -10 7 -6 15 8 22 -1 19 -14 -4 -9 -17 -7 -19 19 -16 l29 4
-24 -26 c-23 -25 -48 -24 -38 2 6 14 -12 15 -33 2 -14 -9 -27 8 -18 26 4 6 0
3 -9 -7 -8 -10 -17 -24 -20 -30 -7 -18 -26 17 -21 39 3 11 2 14 -1 6 -5 -11
-8 -11 -15 0 -7 12 -9 12 -9 0 0 -11 -3 -11 -17 0 -16 13 -17 12 -4 -3 7 -10
17 -15 22 -12 5 3 9 1 9 -5 0 -14 -17 -23 -24 -13 -6 10 -36 9 -54 -2 -7 -4
-15 -1 -18 9 -6 13 -8 14 -15 3 -7 -10 -9 -11 -9 0 0 7 -5 10 -11 6 -8 -4 -7
-9 2 -15 11 -6 11 -11 1 -21 -9 -9 -12 -9 -13 3 0 7 -2 24 -3 37 -3 27 12 40
20 17 6 -14 8 -14 20 2 12 15 13 15 8 2 -8 -24 11 -32 30 -14 9 9 25 18 36 20
11 2 24 6 29 10 5 3 12 1 15 -4 4 -5 14 -8 24 -6 9 1 24 -3 32 -10 27 -23 56
-14 51 17 0 3 7 5 17 3 9 -1 26 2 37 8 11 6 23 10 27 9 4 -1 15 9 25 23 19 26
23 29 23 17z m-1455 -43 c0 -20 5 -24 31 -24 17 0 38 -6 46 -12 10 -9 18 -9
25 -2 8 8 13 7 18 -2 5 -7 4 -10 -3 -5 -6 3 -14 2 -17 -4 -4 -6 -3 -10 2 -9
19 3 23 -2 11 -15 -11 -12 -15 -11 -26 8 -12 19 -13 19 -8 1 6 -19 6 -20 -9
-1 -8 10 -12 22 -10 26 2 4 -3 7 -11 7 -10 0 -11 -4 -4 -11 5 -5 10 -15 10
-20 -1 -6 -10 0 -20 13 -12 14 -20 18 -20 10 0 -11 -3 -11 -11 1 -8 12 -9 11
-5 -5 5 -16 1 -21 -15 -22 -17 -2 -18 1 -8 13 6 8 9 17 5 21 -3 3 -6 0 -6 -8
0 -12 -2 -11 -10 1 -8 11 -9 9 -6 -10 3 -14 5 -28 5 -31 1 -3 8 -6 16 -6 8 0
12 3 10 7 -6 10 47 6 65 -5 18 -11 71 -14 64 -4 -2 4 0 10 6 14 5 3 10 1 10
-5 0 -6 11 -3 24 7 13 10 19 21 14 24 -5 3 -8 10 -6 14 1 5 -5 9 -15 11 -11 1
-14 -2 -10 -9 12 -20 12 -38 0 -34 -14 4 -16 41 -2 45 6 2 15 7 20 11 9 6 18
7 41 2 4 0 1 -8 -6 -16 -19 -23 2 -41 23 -21 10 10 18 12 22 6 3 -5 1 -10 -6
-10 -8 0 -7 -5 2 -17 9 -10 9 -14 2 -10 -7 5 -19 -3 -29 -18 -15 -24 -18 -24
-34 -10 -14 13 -22 14 -44 4 -14 -7 -26 -16 -26 -21 0 -4 -5 -8 -11 -8 -5 0
-7 5 -3 12 5 8 2 9 -9 5 -10 -4 -20 0 -26 11 -5 9 -13 14 -17 10 -4 -5 -13 -3
-20 3 -10 8 -16 5 -25 -15 -12 -26 -29 -35 -29 -16 0 6 6 10 13 10 6 0 4 5 -6
11 -13 8 -22 7 -33 -1 -18 -16 -18 0 1 26 8 12 12 24 8 27 -3 4 0 13 6 21 7 8
10 20 6 26 -3 5 -1 10 5 10 6 0 9 4 6 9 -4 5 2 8 11 7 12 -2 18 -12 18 -27z
m-383 -3 c6 4 9 3 5 -2 -3 -5 1 -18 9 -29 8 -10 14 -14 14 -9 0 6 6 11 13 12
11 0 27 4 66 14 8 2 14 -7 16 -23 3 -25 1 -26 -37 -25 -24 1 -46 -4 -55 -12
-8 -8 -17 -11 -21 -7 -4 4 -1 10 6 12 6 3 9 9 6 15 -4 6 -13 1 -21 -13 -11
-21 -13 -21 -11 -4 2 12 -3 21 -12 21 -8 1 -19 3 -25 4 -5 1 -13 2 -17 1 -5 0
-8 4 -8 10 0 5 -5 7 -11 3 -8 -4 -7 -9 2 -15 7 -4 16 -6 20 -3 4 2 10 -3 13
-11 4 -13 2 -14 -14 -5 -22 12 -44 5 -35 -11 7 -11 7 -11 -63 -13 -59 -3 -74
7 -40 25 13 6 33 23 45 38 14 16 22 21 23 12 0 -8 3 -11 7 -8 3 4 12 2 19 -4
8 -6 14 -7 18 0 4 6 13 8 21 4 8 -3 15 0 15 7 0 6 5 8 10 5 6 -3 13 2 17 11 4
11 8 13 11 6 2 -7 9 -9 14 -6z m1073 -3 c14 -18 63 -26 80 -12 7 5 11 1 12
-12 1 -10 -3 -19 -8 -19 -6 0 -7 5 -3 12 4 7 3 8 -5 4 -6 -4 -9 -11 -6 -16 3
-5 1 -11 -5 -15 -9 -6 -15 8 -11 29 1 5 -5 3 -14 -4 -13 -11 -18 -11 -24 -2
-5 9 -11 4 -19 -13 -11 -24 -10 -25 7 -15 21 11 54 3 46 -10 -3 -5 -1 -11 5
-15 5 -3 10 -12 10 -18 -1 -7 -5 -6 -13 4 -7 9 -17 14 -24 12 -6 -2 -14 0 -17
6 -4 6 -13 8 -21 4 -11 -4 -14 1 -13 18 2 13 7 27 13 31 5 4 0 6 -13 5 -14 -1
-18 -5 -12 -11 19 -19 10 -26 -13 -11 -13 8 -27 12 -32 8 -4 -5 -5 -2 0 6 5 9
4 12 -3 7 -6 -4 -9 -12 -6 -20 3 -7 -2 -13 -11 -13 -10 0 -14 7 -10 21 3 12 2
15 -1 8 -5 -10 -9 -10 -22 0 -13 11 -14 11 -7 -1 6 -10 4 -12 -5 -6 -8 5 -11
4 -7 -3 9 -14 -3 -43 -15 -36 -5 3 -4 11 3 20 6 8 8 14 3 14 -5 1 2 9 15 20
12 11 28 17 35 12 22 -14 68 -9 79 10 14 22 17 22 32 1z m319 9 c8 -14 -11
-35 -25 -28 -8 4 -6 1 5 -8 18 -14 18 -15 -2 -13 -20 1 -21 8 -7 40 8 18 21
22 29 9z m-529 -42 c0 -7 -10 -14 -22 -15 -13 -1 -21 1 -18 3 3 3 0 11 -5 17
-7 9 -3 12 18 10 15 0 27 -7 27 -15z m433 -5 c-3 -3 -9 2 -12 12 -6 14 -5 15
5 6 7 -7 10 -15 7 -18z m-1014 -6 c-3 -5 -10 -7 -15 -3 -5 3 -7 10 -3 15 3 5
10 7 15 3 5 -3 7 -10 3 -15z m696 -24 c11 2 18 0 15 -6 -4 -5 -1 -9 6 -9 6 0
9 8 6 20 -4 17 -2 18 14 9 10 -5 19 -12 19 -14 0 -13 -25 -55 -33 -55 -5 0 -4
6 2 14 9 11 6 13 -14 11 -14 -2 -23 1 -19 6 3 5 0 10 -5 10 -6 1 -15 2 -21 3
-5 0 -10 4 -10 9 0 28 2 30 10 15 6 -10 19 -15 30 -13z m215 -5 c0 -7 -7 -16
-15 -18 -13 -5 -13 -3 0 14 14 17 14 18 -2 6 -9 -8 -14 -20 -11 -28 5 -13 8
-12 24 2 21 19 27 6 7 -14 -17 -17 -24 -15 -47 10 -14 14 -18 25 -11 33 13 16
55 12 55 -5z m-885 -2 c0 -4 -4 -10 -10 -13 -5 -3 -10 -1 -10 6 0 9 -3 9 -14
0 -9 -7 -17 -8 -20 -2 -3 5 0 11 6 14 19 7 48 4 48 -5z m920 -4 c0 -8 -4 -12
-10 -9 -5 3 -10 10 -10 16 0 5 5 9 10 9 6 0 10 -7 10 -16z m276 -11 c-7 -7
-26 7 -26 19 0 6 6 6 15 -2 9 -7 13 -15 11 -17z m89 8 c-3 -6 -11 -11 -17 -11
-6 0 -6 6 2 15 14 17 26 13 15 -4z m71 -8 c-7 -7 -26 7 -26 19 0 6 6 6 15 -2
9 -7 13 -15 11 -17z m-1756 -14 c0 -8 4 -9 13 0 14 11 27 5 27 -11 0 -5 -4 -7
-9 -3 -5 3 -16 -2 -24 -10 -21 -20 -24 -19 -24 10 0 14 3 25 8 25 5 0 9 -5 9
-11z m-25 -9 c3 -5 1 -10 -4 -10 -6 0 -11 5 -11 10 0 6 2 10 4 10 3 0 8 -4 11
-10z m245 0 c0 -5 -4 -10 -10 -10 -5 0 -10 5 -10 10 0 6 5 10 10 10 6 0 10 -4
10 -10z m1500 0 c0 -5 -4 -10 -10 -10 -5 0 -10 5 -10 10 0 6 5 10 10 10 6 0
10 -4 10 -10z m-720 -10 c0 -5 -4 -10 -10 -10 -5 0 -10 5 -10 10 0 6 5 10 10
10 6 0 10 -4 10 -10z"/>
<path d="M850 691 c0 -25 6 -27 13 -6 4 8 2 17 -3 20 -6 4 -10 -3 -10 -14z"/>
<path d="M1368 677 c7 -8 7 -18 2 -27 -10 -16 -4 -30 11 -30 6 0 8 4 5 9 -3 4
1 17 9 27 15 18 15 18 8 -1 -7 -20 -7 -20 22 -1 17 10 24 13 18 5 -18 -18 -16
-34 2 -19 15 12 39 5 30 -10 -3 -4 2 -11 10 -14 14 -5 14 -2 0 23 -16 33 -30
40 -68 36 -15 -2 -29 1 -33 6 -3 5 -10 9 -16 9 -7 0 -7 -4 0 -13z"/>
<path d="M1542 683 c-6 -2 -10 -9 -7 -13 3 -5 -6 -25 -20 -46 -26 -38 -28 -61
-5 -56 7 1 19 -3 27 -9 11 -10 14 -10 11 2 -2 8 5 14 17 14 11 0 20 7 20 15 0
8 4 20 8 27 5 8 1 11 -13 10 -23 -2 -23 -2 -9 -30 10 -21 10 -21 -5 -3 -14 17
-20 15 -17 -6 0 -5 -15 -4 -37 1 -1 1 8 18 22 38 14 20 22 41 19 46 -3 6 -1 7
5 3 7 -4 12 -2 12 3 0 12 -7 13 -28 4z"/>
<path d="M1286 673 c-4 -4 -12 -9 -17 -9 -5 -1 -10 -2 -11 -4 -2 -1 -10 -3
-18 -5 -38 -8 -45 -11 -52 -20 -5 -7 -11 -7 -15 0 -5 6 -29 11 -55 11 -38 0
-49 -3 -54 -18 -5 -16 -8 -17 -22 -6 -11 9 -14 9 -9 1 6 -9 -2 -11 -28 -9 -19
1 -40 -2 -47 -7 -9 -6 -8 -7 4 -4 17 6 19 -16 3 -30 -4 -4 -5 -2 -1 5 4 6 3
12 -2 12 -6 0 -12 -6 -15 -14 -6 -14 4 -15 40 -4 6 1 18 -5 25 -14 15 -20 24
-15 56 26 15 19 19 32 12 36 -6 4 3 7 20 7 16 0 30 -4 30 -9 0 -5 -4 -6 -10
-3 -5 3 -10 1 -10 -5 0 -6 -4 -8 -10 -5 -5 3 -10 1 -10 -4 0 -6 5 -11 11 -11
5 0 8 -4 5 -8 -6 -11 25 -9 43 2 8 5 19 2 29 -7 12 -13 13 -19 3 -31 -7 -9 -8
-16 -2 -20 5 -4 13 -2 16 4 5 7 11 8 19 1 7 -6 17 -6 26 -1 9 5 20 5 28 -2 7
-6 12 -7 11 -2 -4 21 2 26 19 13 15 -13 16 -12 4 3 -19 24 -7 41 19 28 10 -6
19 -8 19 -4 0 3 6 1 14 -5 10 -9 16 -9 21 -1 5 8 11 8 21 -1 10 -8 14 -8 14 0
0 10 -14 15 -33 12 -5 -1 -5 4 -1 10 5 8 3 9 -7 4 -12 -7 -12 -6 -1 7 10 12 9
18 -3 28 -11 9 -12 17 -3 34 11 21 11 21 -11 2 -15 -14 -18 -22 -10 -27 8 -4
4 -9 -10 -14 -11 -3 -21 -11 -21 -16 0 -6 7 -6 19 1 13 7 22 7 26 0 7 -12 9
-11 -31 -14 -25 -2 -31 1 -26 13 5 13 3 14 -10 4 -8 -7 -17 -12 -19 -10 -2 1
1 -2 7 -7 9 -7 6 -14 -10 -27 -24 -19 -63 -19 -58 0 1 6 -4 11 -10 11 -9 0 -8
4 2 11 12 9 11 10 -5 5 -16 -5 -15 -3 5 13 22 17 22 19 5 16 -11 -2 -24 -4
-28 -4 -5 -1 -5 -7 -1 -13 4 -7 3 -9 -1 -5 -19 17 -13 34 11 31 13 -1 32 5 41
14 16 16 16 16 10 0 -9 -26 10 -22 38 7 14 13 25 21 25 17 0 -4 9 -8 20 -8 11
0 20 4 20 8 0 4 -4 8 -9 8 -5 0 -16 2 -23 5 -8 3 -18 2 -22 -2z m-140 -66 c-1
-12 -6 -21 -9 -19 -4 1 -12 2 -19 2 -6 0 -4 6 7 13 11 9 15 19 10 27 -5 9 -4
11 3 6 7 -4 10 -17 8 -29z m-108 -44 c-6 -7 -13 -13 -16 -13 -3 0 -3 3 1 6 3
4 -4 15 -16 26 -12 11 -16 17 -9 13 6 -3 12 -1 12 4 0 6 9 3 20 -6 14 -13 17
-20 8 -30z m32 35 c0 -4 -4 -8 -9 -8 -6 0 -12 4 -15 8 -3 5 1 9 9 9 8 0 15 -4
15 -9z"/>
<path d="M1546 628 c-20 -32 -22 -37 -5 -18 12 14 26 24 31 22 5 -1 7 2 3 8
-10 16 11 12 26 -6 10 -13 10 -17 0 -24 -8 -4 -9 -10 -3 -14 5 -3 13 1 16 10
6 17 26 10 26 -9 0 -7 -4 -6 -10 3 -7 12 -9 11 -8 -6 1 -12 9 -21 18 -20 8 1
14 -5 12 -12 -1 -8 2 -11 7 -8 11 7 9 23 -6 51 -6 11 -9 31 -7 45 l4 25 -18
-21 c-18 -21 -19 -21 -30 -3 -18 28 -26 24 -56 -23z"/>
<path d="M1285 640 c-4 -7 -21 -18 -38 -25 -36 -15 -47 -60 -16 -62 22 -2 45
22 29 32 -16 10 -12 28 5 21 9 -3 19 3 26 15 11 22 6 38 -6 19z m-25 -65 c0
-2 -5 -7 -12 -11 -7 -5 -8 -3 -3 6 6 9 4 12 -7 8 -8 -4 -15 0 -15 7 0 10 5 11
19 4 10 -5 18 -12 18 -14z"/>
<path d="M1306 634 c-4 -9 -4 -19 -1 -22 3 -3 5 0 5 7 0 7 4 10 8 7 5 -3 9 1
9 9 0 20 -13 19 -21 -1z"/>
<path d="M1393 626 c0 -6 -2 -15 -4 -21 -2 -5 6 -20 19 -32 12 -13 22 -18 22
-11 0 6 6 4 13 -7 13 -17 14 -16 11 6 -1 13 -3 26 -4 29 -1 3 -2 8 -1 13 0 4
-4 7 -10 7 -6 0 -8 -8 -5 -17 6 -17 5 -17 -8 0 -9 11 -16 14 -19 7 -3 -6 -4
-5 -2 2 1 7 8 12 15 10 6 -1 10 3 8 9 -5 16 -35 20 -35 5z"/>
<path d="M1445 631 c-3 -5 -1 -12 5 -16 6 -4 8 -10 5 -15 -6 -9 20 -21 29 -13
11 12 6 22 -15 28 -17 6 -19 9 -8 16 9 6 10 9 2 9 -6 0 -14 -4 -18 -9z"/>
<path d="M375 685 c-3 -8 -7 -22 -10 -31 -3 -8 0 -12 5 -9 6 3 10 2 10 -3 0
-8 38 -9 70 -1 9 2 14 -2 13 -11 -2 -10 5 -16 17 -16 26 0 25 8 -4 33 -21 18
-27 20 -43 8 -24 -18 -56 -1 -48 26 4 10 4 19 0 19 -3 0 -8 -7 -10 -15z"/>
<path d="M490 680 c0 -5 5 -10 11 -10 5 0 7 5 4 10 -3 6 -8 10 -11 10 -2 0 -4
-4 -4 -10z"/>
<path d="M246 650 c2 -19 -1 -30 -9 -30 -8 0 -7 -3 3 -9 8 -6 18 -7 22 -5 4 3
8 0 8 -5 0 -6 -5 -11 -12 -11 -6 0 -3 -7 8 -15 10 -8 15 -15 9 -15 -9 0 35
-35 45 -35 3 0 10 -4 17 -8 6 -4 14 -3 17 2 4 5 2 12 -4 16 -6 4 -8 11 -4 16
4 6 11 5 20 -2 12 -10 14 -10 12 0 -4 19 38 23 52 6 11 -14 15 -14 31 1 11 10
19 14 19 9 0 -4 10 -1 23 8 18 11 57 16 75 8 1 0 -3 -11 -9 -23 -11 -20 -10
-21 3 -11 8 7 18 10 21 6 4 -3 13 -1 20 5 8 7 17 9 21 5 8 -8 36 29 30 39 -3
5 -1 8 4 8 15 0 9 35 -9 53 -12 11 -19 13 -27 5 -8 -8 -15 -8 -26 1 -12 10
-20 9 -40 -4 -31 -21 -33 -30 -6 -32 11 -1 19 1 19 5 -4 28 2 33 23 18 17 -12
25 -13 37 -4 13 10 14 10 4 -2 -10 -10 -9 -16 2 -24 12 -9 11 -14 -10 -33 -14
-12 -25 -17 -25 -12 0 5 -3 8 -7 8 -19 -3 -34 2 -29 9 9 15 -49 7 -62 -8 -11
-13 -11 -11 -2 8 6 12 16 20 22 16 6 -4 8 1 4 14 -4 11 -2 23 4 27 12 7 4 25
-11 25 -6 0 -7 -4 -4 -10 3 -5 -1 -22 -9 -38 -17 -32 -62 -39 -60 -9 1 10 -3
14 -10 10 -21 -13 -100 -8 -117 7 -9 8 -14 18 -12 22 2 4 -2 10 -8 14 -8 4 -9
3 -5 -4 4 -7 2 -12 -3 -12 -6 0 -11 5 -11 10 0 6 -4 10 -10 10 -6 0 -5 -11 2
-27 14 -34 39 -65 46 -58 3 3 -3 14 -13 25 -10 11 -15 23 -12 27 4 3 7 1 7 -6
0 -7 5 -9 12 -5 6 4 9 3 5 -2 -3 -5 1 -18 9 -29 13 -17 14 -17 14 -1 0 25 25
14 26 -12 1 -19 -1 -20 -14 -10 -11 9 -14 10 -9 1 5 -8 1 -11 -13 -8 -14 3
-18 0 -14 -8 4 -7 4 -9 -1 -5 -4 4 -14 3 -22 -3 -14 -12 -15 -10 -17 31 0 14
-5 28 -11 32 -5 4 -10 17 -10 29 0 12 -5 24 -11 26 -7 2 -10 -7 -8 -27z m159
-39 c-3 -5 -1 -12 4 -15 5 -3 12 1 15 10 6 15 8 15 24 2 9 -9 23 -13 30 -11 8
3 4 -6 -9 -21 l-23 -26 -22 21 c-16 15 -23 17 -27 7 -3 -7 -4 -2 -2 12 4 31 4
30 11 30 3 0 3 -4 -1 -9z m245 -26 c-7 -9 -15 -13 -19 -10 -3 3 1 10 9 15 21
14 24 12 10 -5z m-308 -27 c-9 -9 -9 -15 1 -27 11 -14 10 -15 -7 -1 -11 8 -21
14 -23 13 -1 -2 -3 0 -3 5 0 4 4 7 9 7 5 0 13 3 17 8 4 4 10 7 13 7 3 0 0 -5
-7 -12z"/>
<path d="M427 597 c-3 -8 0 -21 8 -27 19 -15 27 3 11 25 -11 16 -14 16 -19 2z"/>
<path d="M585 625 c1 -14 6 -29 10 -33 5 -4 5 1 2 10 -8 21 4 30 23 17 10 -6
11 -9 3 -9 -7 0 -13 -5 -13 -10 0 -6 8 -5 20 2 18 12 18 13 -8 30 -36 24 -41
23 -37 -7z"/>
<path d="M550 620 c0 -5 5 -10 11 -10 5 0 7 5 4 10 -3 6 -8 10 -11 10 -2 0 -4
-4 -4 -10z"/>
<path d="M707 616 c-4 -10 -1 -13 9 -9 20 7 18 -4 -6 -34 -11 -14 -20 -21 -20
-16 0 5 -7 10 -15 10 -20 0 -19 -2 11 -22 15 -9 24 -13 20 -7 -3 5 3 21 14 35
11 14 17 32 14 41 -8 20 -20 21 -27 2z"/>
<path d="M293 591 c1 -22 12 -28 21 -12 3 5 -1 14 -9 21 -11 9 -14 8 -12 -9z"/>
<path d="M2166 518 c3 -4 0 -8 -5 -8 -6 0 -11 -4 -11 -10 0 -16 14 -12 27 8 9
15 8 19 -3 19 -7 0 -11 -4 -8 -9z"/>
<path d="M2075 510 c-3 -5 -1 -10 4 -10 6 0 11 5 11 10 0 6 -2 10 -4 10 -3 0
-8 -4 -11 -10z"/>
<path d="M909 575 c-1 -3 -2 -8 -3 -12 -1 -5 -4 -13 -8 -19 -4 -6 -1 -11 5
-11 7 0 13 11 13 24 0 21 -4 31 -7 18z"/>
<path d="M1096 538 c3 -5 10 -6 15 -3 13 9 11 12 -6 12 -8 0 -12 -4 -9 -9z"/>
<path d="M1103 493 c-17 -6 -16 -20 1 -26 8 -3 22 4 33 16 l18 22 -24 -20
c-21 -18 -24 -18 -18 -2 4 9 5 17 4 16 -1 0 -8 -3 -14 -6z"/>
<path d="M510 535 c-7 -9 -10 -18 -6 -22 3 -3 6 -1 6 5 0 14 22 12 32 -3 5 -6
8 -6 8 1 0 6 -6 17 -14 23 -10 9 -16 8 -26 -4z"/>
<path d="M640 530 c-9 -6 -10 -10 -3 -10 6 0 15 5 18 10 8 12 4 12 -15 0z"/>
<path d="M377 505 c-12 -17 -14 -26 -5 -31 7 -4 8 -3 4 4 -9 15 -1 15 24 2 16
-9 18 -8 14 5 -4 9 -3 15 2 14 26 -4 35 1 22 14 -10 12 -15 10 -30 -7 -10 -12
-17 -15 -18 -8 0 6 5 12 10 12 6 0 10 5 10 10 0 17 -14 11 -33 -15z"/>
<path d="M610 519 c0 -5 -4 -8 -8 -5 -4 2 -14 0 -22 -5 -11 -7 -9 -8 9 -6 21
3 45 27 27 27 -3 0 -6 -5 -6 -11z"/>
<path d="M1586 542 c-2 -4 4 -8 14 -8 10 0 16 4 14 8 -3 4 -9 8 -14 8 -5 0
-11 -4 -14 -8z"/>
<path d="M1635 480 c3 -5 8 -10 11 -10 2 0 4 5 4 10 0 6 -5 10 -11 10 -5 0 -7
-4 -4 -10z"/>
<path d="M835 1880 c-10 -11 -14 -20 -8 -20 5 0 18 9 28 20 10 11 14 20 8 20
-5 0 -18 -9 -28 -20z"/>
<path d="M2014 706 c-10 -8 -19 -20 -19 -28 0 -7 -7 -13 -15 -13 -8 0 -20 -9
-27 -20 -16 -27 -16 -32 2 -32 10 0 14 7 10 21 -3 12 -2 16 1 9 4 -8 13 -5 29
9 14 12 22 26 18 31 -3 6 -1 7 5 3 5 -3 12 -3 15 1 2 5 2 2 1 -4 -2 -7 1 -13
6 -13 6 0 10 -5 10 -11 0 -8 -5 -8 -15 1 -10 8 -15 9 -15 2 0 -10 30 -32 43
-32 9 0 1 44 -12 68 -14 26 -12 26 -37 8z"/>
<path d="M2079 657 c-1 -4 -2 -11 -3 -16 -3 -21 -17 -23 -42 -6 -30 19 -33 18
-71 -41 -12 -18 -12 -18 -7 1 4 15 3 17 -4 6 -8 -11 -11 -10 -16 7 -8 23 -37
34 -57 21 -15 -9 -12 -11 20 -13 11 0 23 -5 28 -10 5 -5 3 -6 -4 -2 -8 4 -13
2 -13 -6 0 -9 -3 -9 -10 2 -9 13 -10 13 -10 0 0 -12 -2 -12 -9 -1 -6 9 -11 10
-15 3 -10 -16 28 -34 42 -20 6 6 18 7 29 3 10 -4 24 -9 31 -11 8 -1 22 -10 32
-19 12 -11 20 -13 25 -6 3 6 19 9 35 6 16 -3 32 0 35 5 4 6 11 7 17 4 7 -4 8
-2 4 4 -4 6 -2 20 4 31 7 13 7 22 0 26 -9 5 -14 -7 -12 -26 1 -4 -9 -15 -21
-25 -20 -18 -21 -18 -7 -1 12 17 12 18 -6 15 -10 -1 -22 -7 -26 -13 -5 -7 -14
-6 -28 3 -24 15 -41 16 -20 1 13 -9 13 -10 0 -6 -22 6 -19 42 3 40 13 -1 17 4
13 15 -5 15 -4 15 7 0 8 -10 17 -15 21 -11 4 4 4 -1 0 -11 -6 -15 -4 -17 7
-10 8 4 21 9 29 9 10 0 14 8 12 25 -4 25 -11 39 -13 27z"/>
<path d="M2140 621 c-8 -18 -8 -26 0 -31 7 -4 11 -10 11 -14 -3 -22 2 -25 24
-10 24 16 27 14 29 -15 1 -8 7 -16 14 -19 8 -2 12 2 10 11 -2 9 2 16 7 17 6 1
15 6 22 11 7 7 14 6 18 -1 7 -12 54 19 55 36 0 6 12 16 26 23 15 6 24 14 21
17 -3 3 -14 1 -24 -4 -12 -7 -25 -7 -38 -1 -20 10 -20 10 -1 -5 20 -16 20 -17
-24 -20 -9 -1 -14 -10 -13 -21 1 -17 0 -18 -10 -5 -14 17 -28 22 -74 24 -17 0
-35 5 -40 9 -4 5 -3 8 2 7 19 -4 35 0 35 9 0 20 -39 6 -50 -18z m49 -20 c9 -2
-23 -31 -33 -30 -6 0 -6 3 2 6 10 4 9 8 -4 17 -15 12 -14 13 7 10 13 -1 26 -3
28 -3z m47 -11 c5 1 9 -3 11 -9 1 -8 0 -7 -4 0 -4 8 -8 8 -13 -1 -11 -17 -31
-3 -23 16 4 11 8 12 13 4 4 -6 11 -11 16 -10z m70 11 c20 17 17 5 -4 -14 -17
-15 -18 -15 -19 6 0 12 1 16 4 9 4 -10 8 -10 19 -1z"/>
<path d="M1991 606 c2 -2 14 -9 26 -15 18 -9 22 -9 18 2 -3 7 -15 13 -26 14
-12 1 -20 1 -18 -1z"/>
<path d="M1235 480 c-3 -5 -1 -10 4 -10 6 0 11 5 11 10 0 6 -2 10 -4 10 -3 0
-8 -4 -11 -10z"/>
<path d="M1950 480 c0 -5 5 -10 11 -10 5 0 7 5 4 10 -3 6 -8 10 -11 10 -2 0
-4 -4 -4 -10z"/>
<path d="M1235 450 c3 -5 8 -10 11 -10 2 0 4 5 4 10 0 6 -5 10 -11 10 -5 0 -7
-4 -4 -10z"/>
<path d="M1946 444 c-8 -20 2 -36 16 -28 6 4 8 -2 4 -17 -6 -20 -5 -21 4 -6
12 19 4 41 -11 32 -5 -4 -9 -2 -9 4 0 17 15 20 35 5 10 -8 15 -14 11 -14 -4 0
0 -7 9 -16 9 -9 13 -19 10 -22 -3 -4 -10 0 -15 8 -6 9 -10 10 -10 3 0 -15 17
-26 30 -18 13 8 -5 44 -34 67 -26 22 -32 22 -40 2z"/>
<path d="M1625 429 c-11 -16 -1 -19 13 -3 7 8 8 14 3 14 -5 0 -13 -5 -16 -11z"/>
<path d="M925 420 c-3 -5 -1 -10 4 -10 6 0 11 5 11 10 0 6 -2 10 -4 10 -3 0
-8 -4 -11 -10z"/>
<path d="M622 409 c10 -5 15 -17 12 -27 -5 -14 -3 -14 6 2 10 15 9 20 -1 27
-8 5 -18 9 -24 9 -5 -1 -2 -5 7 -11z"/>
<path d="M701 399 c-13 -10 -27 -17 -31 -14 -14 9 -23 -16 -11 -28 9 -9 10 -7
5 7 -5 13 -4 17 3 13 6 -4 22 2 35 13 24 18 38 18 38 -2 0 -4 -5 -7 -11 -5 -6
1 -14 -5 -16 -13 -4 -12 -3 -12 5 -2 5 8 13 13 18 12 5 0 10 5 12 13 5 23 -22
26 -47 6z"/>
<path d="M800 404 c-14 -8 -18 -14 -10 -14 8 1 24 7 34 15 24 19 10 18 -24 -1z"/>
<path d="M855 410 c3 -5 0 -10 -8 -10 -8 0 -20 -7 -27 -15 -9 -10 -9 -15 -1
-15 6 0 11 4 11 9 0 5 9 11 20 14 21 5 28 27 9 27 -5 0 -7 -4 -4 -10z"/>
<path d="M1152 404 c-12 -8 -20 -20 -17 -25 9 -14 41 -11 55 7 8 8 9 14 4 13
-21 -4 -28 2 -14 11 8 5 10 10 5 10 -6 0 -21 -7 -33 -16z m23 -14 c3 -5 -3
-10 -15 -10 -12 0 -18 5 -15 10 3 6 10 10 15 10 5 0 12 -4 15 -10z"/>
<path d="M1397 409 c7 -7 15 -10 18 -7 3 3 -2 9 -12 12 -14 6 -15 5 -6 -5z"/>
<path d="M390 400 c0 -5 5 -10 10 -10 6 0 10 5 10 10 0 6 -4 10 -10 10 -5 0
-10 -4 -10 -10z"/>
<path d="M463 399 c-6 -6 -19 -12 -29 -13 -10 -2 -19 -8 -20 -15 -1 -6 0 -7 3
-1 2 5 8 8 13 5 4 -3 19 4 31 15 13 11 22 19 19 20 -4 0 -11 -5 -17 -11z"/>
<path d="M497 393 c4 -11 3 -14 -5 -9 -7 4 -15 1 -18 -8 -3 -9 -10 -13 -15
-10 -5 3 -9 0 -9 -5 0 -16 18 -13 28 5 5 9 13 15 18 14 5 0 10 6 12 14 2 9 -1
16 -7 16 -6 0 -7 -7 -4 -17z"/>
<path d="M876 395 c-9 -26 -7 -32 5 -12 6 10 9 21 6 23 -2 3 -7 -2 -11 -11z"/>
<path d="M950 404 c0 -16 47 -37 66 -30 16 6 16 8 1 23 -12 12 -19 14 -30 5
-10 -9 -16 -9 -25 0 -7 7 -12 8 -12 2z m65 -14 c3 -5 -3 -10 -15 -10 -12 0
-18 5 -15 10 3 6 10 10 15 10 5 0 12 -4 15 -10z"/>
<path d="M1454 399 c-3 -6 -1 -16 6 -22 10 -9 12 -8 6 7 -5 16 -2 17 21 12 21
-5 24 -4 13 4 -20 13 -37 13 -46 -1z"/>
<path d="M584 385 c-10 -8 -14 -14 -9 -14 6 0 19 6 29 14 11 8 15 15 10 15 -6
0 -19 -7 -30 -15z"/>
<path d="M900 385 c-13 -16 -6 -35 13 -34 9 0 9 2 0 6 -20 7 -15 19 7 20 13 1
18 -2 14 -9 -4 -7 -2 -8 4 -4 16 10 15 14 -7 25 -14 8 -22 7 -31 -4z"/>
<path d="M1213 393 c4 -3 -1 -12 -11 -20 -15 -13 -15 -13 6 -3 19 9 23 30 5
30 -4 0 -3 -3 0 -7z"/>
<path d="M1385 386 c18 -13 55 -6 55 10 0 2 -9 0 -19 -6 -13 -7 -22 -7 -26 0
-3 5 -11 10 -18 10 -6 0 -2 -6 8 -14z"/>
<path d="M1537 393 c-4 -3 -7 -11 -7 -17 0 -6 5 -5 12 2 6 6 9 14 7 17 -3 3
-9 2 -12 -2z"/>
<path d="M511 367 c-13 -21 -12 -21 5 -5 10 10 16 20 13 22 -3 3 -11 -5 -18
-17z"/>
<path d="M1600 379 c-12 -9 -12 -10 3 -5 15 5 17 2 12 -17 -5 -20 -5 -20 6 -4
14 23 0 40 -21 26z"/>
<path d="M1655 381 c-9 -8 -5 -31 5 -31 5 0 6 7 3 17 -4 9 -2 14 3 10 6 -3 16
-2 24 3 11 7 9 9 -8 7 -13 -1 -25 -3 -27 -6z"/>
<path d="M1373 365 c0 -8 4 -12 9 -9 5 3 6 10 3 15 -9 13 -12 11 -12 -6z"/>
<path d="M1481 364 c0 -11 3 -14 6 -6 3 7 2 16 -1 19 -3 4 -6 -2 -5 -13z"/>
<path d="M1510 374 c0 -5 6 -18 13 -29 12 -15 15 -16 22 -4 5 8 4 10 0 6 -5
-4 -15 3 -22 15 -7 13 -12 18 -13 12z"/>
<path d="M1570 369 c0 -5 -6 -7 -12 -4 -7 4 -5 0 4 -8 10 -8 14 -18 10 -22 -4
-5 -2 -5 5 -2 6 4 9 16 6 27 -6 21 -13 27 -13 9z"/>
<path d="M535 359 c-11 -16 -1 -19 13 -3 7 8 8 14 3 14 -5 0 -13 -5 -16 -11z"/>
<path d="M685 359 c-4 -6 -5 -12 -2 -15 2 -3 7 2 10 11 7 17 1 20 -8 4z"/>
<path d="M780 360 c0 -5 5 -10 10 -10 6 0 10 5 10 10 0 6 -4 10 -10 10 -5 0
-10 -4 -10 -10z"/>
<path d="M837 356 c-4 -10 -1 -13 9 -9 7 3 14 9 14 14 0 14 -17 10 -23 -5z"/>
<path d="M957 363 c-4 -3 -7 -11 -7 -17 0 -6 5 -5 12 2 6 6 9 14 7 17 -3 3 -9
2 -12 -2z"/>
<path d="M1030 366 c0 -2 7 -7 16 -10 8 -3 12 -2 9 4 -6 10 -25 14 -25 6z"/>
<path d="M1112 358 c2 -6 10 -13 16 -14 7 -1 8 0 2 3 -5 2 -8 9 -4 14 3 5 0 9
-6 9 -7 0 -10 -5 -8 -12z"/>
<path d="M1220 360 c-9 -6 -10 -10 -3 -10 6 0 15 5 18 10 8 12 4 12 -15 0z"/>
<path d="M1415 360 c-3 -5 -1 -10 4 -10 6 0 11 5 11 10 0 6 -2 10 -4 10 -3 0
-8 -4 -11 -10z"/>
<path d="M1821 354 c0 -11 3 -14 6 -6 3 7 2 16 -1 19 -3 4 -6 -2 -5 -13z"/>
<path d="M2030 360 c0 -5 9 -14 20 -20 11 -6 20 -9 20 -8 0 2 -9 11 -20 21
-11 9 -20 13 -20 7z"/>
<path d="M2060 360 c8 -5 20 -10 25 -10 6 0 3 5 -5 10 -8 5 -19 10 -25 10 -5
0 -3 -5 5 -10z"/>
<path d="M2116 358 c3 -4 0 -8 -7 -8 -7 0 -10 -3 -6 -6 3 -3 16 1 28 9 22 16
22 16 1 14 -11 0 -18 -5 -16 -9z"/>
<path d="M990 350 c-9 -6 -10 -10 -3 -10 6 0 15 5 18 10 8 12 4 12 -15 0z"/>
<path d="M1070 356 c0 -3 9 -10 20 -16 11 -6 20 -8 20 -6 0 3 -9 10 -20 16
-11 6 -20 8 -20 6z"/>
<path d="M2150 350 c-9 -6 -10 -10 -3 -10 6 0 15 5 18 10 8 12 4 12 -15 0z"/>
<path d="M470 340 c-13 -8 -12 -10 3 -10 9 0 17 5 17 10 0 12 -1 12 -20 0z"/>
<path d="M550 340 c0 -5 5 -10 11 -10 5 0 7 5 4 10 -3 6 -8 10 -11 10 -2 0 -4
-4 -4 -10z"/>
<path d="M755 340 c3 -5 8 -10 11 -10 2 0 4 5 4 10 0 6 -5 10 -11 10 -5 0 -7
-4 -4 -10z"/>
<path d="M870 340 c0 -5 5 -10 10 -10 6 0 10 5 10 10 0 6 -4 10 -10 10 -5 0
-10 -4 -10 -10z"/>
<path d="M1015 341 c-3 -5 0 -13 6 -17 8 -4 9 -3 5 4 -11 19 5 14 21 -5 13
-16 13 -16 3 5 -11 23 -25 28 -35 13z"/>
<path d="M1202 325 c12 -14 23 -25 25 -25 2 0 -4 11 -13 25 -9 14 -20 25 -25
25 -5 0 1 -11 13 -25z"/>
<path d="M1390 340 c0 -5 5 -10 11 -10 5 0 7 5 4 10 -3 6 -8 10 -11 10 -2 0
-4 -4 -4 -10z"/>
<path d="M1430 340 c-13 -8 -12 -10 3 -10 9 0 17 5 17 10 0 12 -1 12 -20 0z"/>
<path d="M1630 341 c0 -6 4 -13 10 -16 6 -3 7 1 4 9 -7 18 -14 21 -14 7z"/>
<path d="M1695 325 c0 -13 3 -21 8 -18 4 2 7 10 7 18 0 8 -3 16 -7 18 -5 3 -8
-5 -8 -18z"/>
<path d="M1733 334 c-3 -8 -2 -19 3 -24 5 -5 9 1 9 16 0 28 -3 30 -12 8z"/>
<path d="M1788 328 c-10 -10 -14 -18 -9 -18 10 0 36 29 30 34 -2 1 -12 -6 -21
-16z"/>
<path d="M1988 344 c6 -3 10 -9 7 -14 -3 -4 2 -10 10 -13 10 -4 12 -1 8 10 -5
12 -3 14 8 8 8 -4 11 -4 6 0 -4 5 -18 10 -30 11 -12 2 -16 0 -9 -2z"/>
<path d="M500 331 c0 -6 4 -13 10 -16 6 -3 7 1 4 9 -7 18 -14 21 -14 7z"/>
<path d="M1365 323 c-11 -25 -15 -46 -7 -38 4 4 7 10 7 13 0 4 4 13 9 20 4 7
6 15 3 18 -2 3 -8 -3 -12 -13z"/>
<path d="M1660 336 c0 -2 7 -7 16 -10 8 -3 12 -2 9 4 -6 10 -25 14 -25 6z"/>
<path d="M1755 330 c-3 -6 1 -7 9 -4 18 7 21 14 7 14 -6 0 -13 -4 -16 -10z"/>
<path d="M533 315 c0 -8 4 -12 9 -9 5 3 6 10 3 15 -9 13 -12 11 -12 -6z"/>
<path d="M800 320 c-12 -7 -10 -9 8 -7 12 0 22 5 22 9 0 11 -12 10 -30 -2z"/>
<path d="M930 318 c0 -6 3 -8 7 -5 3 4 16 -1 27 -10 21 -18 21 -18 2 5 -21 24
-36 29 -36 10z"/>
<path d="M983 319 c9 -6 15 -14 12 -20 -4 -5 -1 -9 4 -9 6 0 11 4 11 8 0 12
-22 32 -34 32 -6 0 -3 -5 7 -11z"/>
<path d="M1144 318 c9 -5 23 -5 32 0 12 6 7 9 -16 9 -23 0 -28 -3 -16 -9z"/>
<path d="M1495 320 c-3 -6 1 -7 9 -4 18 7 21 14 7 14 -6 0 -13 -4 -16 -10z"/>
<path d="M1586 322 c-3 -5 1 -9 9 -9 8 0 15 4 15 9 0 4 -4 8 -9 8 -6 0 -12 -4
-15 -8z"/>
<path d="M2090 326 c0 -2 7 -7 16 -10 8 -3 12 -2 9 4 -6 10 -25 14 -25 6z"/>
<path d="M587 299 c7 -9 11 -18 8 -20 -2 -3 4 -5 14 -5 10 0 18 6 18 13 0 7
-4 10 -9 7 -5 -3 -17 0 -26 8 -15 11 -15 11 -5 -3z"/>
<path d="M1505 300 c-3 -6 1 -7 9 -4 18 7 21 14 7 14 -6 0 -13 -4 -16 -10z"/>
<path d="M1548 303 c7 -3 16 -2 19 1 4 3 -2 6 -13 5 -11 0 -14 -3 -6 -6z"/>
<path d="M2075 300 c3 -5 8 -10 11 -10 2 0 4 5 4 10 0 6 -5 10 -11 10 -5 0 -7
-4 -4 -10z"/>
<path d="M915 290 c-4 -6 -10 -8 -15 -5 -5 3 -11 1 -14 -4 -8 -13 22 -7 36 7
7 7 9 12 6 12 -4 0 -10 -5 -13 -10z"/>
<path d="M1097 289 c7 -7 15 -10 18 -7 3 3 -2 9 -12 12 -14 6 -15 5 -6 -5z"/>
<path d="M1257 289 c7 -7 15 -10 18 -7 3 3 -2 9 -12 12 -14 6 -15 5 -6 -5z"/>
<path d="M1575 290 c-4 -6 -10 -8 -14 -6 -4 3 -8 -1 -8 -9 0 -10 4 -12 12 -5
7 5 14 8 17 5 2 -3 5 2 5 10 0 18 -3 19 -12 5z"/>
<path d="M2050 296 c0 -2 8 -10 18 -17 15 -13 16 -12 3 4 -13 16 -21 21 -21
13z"/>
<path d="M810 281 c0 -6 4 -13 10 -16 6 -3 7 1 4 9 -7 18 -14 21 -14 7z"/>
<path d="M856 273 c-6 -14 -5 -15 5 -6 7 7 10 15 7 18 -3 3 -9 -2 -12 -12z"/>
<path d="M1197 275 c-4 -8 -3 -16 1 -19 4 -3 9 4 9 15 2 23 -3 25 -10 4z"/>
<path d="M1235 270 c10 -11 20 -20 23 -20 3 0 -3 9 -13 20 -10 11 -20 20 -23
20 -3 0 3 -9 13 -20z"/>
<path d="M1470 279 c0 -5 5 -7 10 -4 6 3 10 8 10 11 0 2 -4 4 -10 4 -5 0 -10
-5 -10 -11z"/>
<path d="M1613 276 c-3 -6 -3 -8 2 -4 4 4 13 3 20 -2 8 -7 12 -5 12 3 0 16
-25 18 -34 3z"/>
<path d="M1712 284 c3 -3 12 -6 20 -8 7 -1 20 -5 28 -10 12 -7 13 -6 3 4 -7 8
-23 15 -35 17 -12 2 -19 1 -16 -3z"/>
<path d="M2030 281 c0 -6 4 -13 10 -16 6 -3 7 1 4 9 -7 18 -14 21 -14 7z"/>
<path d="M1039 275 c-1 -3 -2 -8 -3 -12 -1 -5 -5 -15 -10 -23 -7 -12 -6 -13 4
-3 13 12 23 43 14 43 -2 0 -5 -2 -5 -5z"/>
<path d="M1066 262 c-2 -4 4 -8 14 -8 10 0 16 4 14 8 -3 4 -9 8 -14 8 -5 0
-11 -4 -14 -8z"/>
<path d="M1275 260 c3 -5 8 -10 11 -10 2 0 4 5 4 10 0 6 -5 10 -11 10 -5 0 -7
-4 -4 -10z"/>
<path d="M1350 261 c0 -6 4 -13 10 -16 6 -3 7 1 4 9 -7 18 -14 21 -14 7z"/>
<path d="M1510 266 c0 -2 7 -7 16 -10 8 -3 12 -2 9 4 -6 10 -25 14 -25 6z"/>
<path d="M1665 260 c-3 -6 1 -7 9 -4 18 7 21 14 7 14 -6 0 -13 -4 -16 -10z"/>
<path d="M1416 247 c3 -10 9 -15 12 -12 3 3 0 11 -7 18 -10 9 -11 8 -5 -6z"/>
<path d="M786 242 c-3 -5 1 -9 9 -9 8 0 12 4 9 9 -3 4 -7 8 -9 8 -2 0 -6 -4
-9 -8z"/>
<path d="M1450 239 c0 -5 5 -7 10 -4 6 3 10 8 10 11 0 2 -4 4 -10 4 -5 0 -10
-5 -10 -11z"/>
<path d="M1734 235 c3 -23 12 -26 13 -5 1 11 -2 20 -7 20 -4 0 -7 -7 -6 -15z"/>
<path d="M796 207 c3 -10 9 -15 12 -12 3 3 0 11 -7 18 -10 9 -11 8 -5 -6z"/>
<path d="M1395 211 c-3 -5 -2 -12 3 -15 5 -3 9 1 9 9 0 17 -3 19 -12 6z"/>
<path d="M1795 209 c-4 -6 -5 -12 -2 -15 2 -3 7 2 10 11 7 17 1 20 -8 4z"/>
<path d="M1167 199 c7 -7 15 -10 18 -7 3 3 -2 9 -12 12 -14 6 -15 5 -6 -5z"/>
<path d="M855 181 c-3 -5 -2 -12 3 -15 5 -3 9 1 9 9 0 17 -3 19 -12 6z"/>
<path d="M1030 180 c0 -5 5 -10 11 -10 5 0 7 5 4 10 -3 6 -8 10 -11 10 -2 0
-4 -4 -4 -10z"/>
<path d="M1075 180 c-3 -5 -1 -10 4 -10 6 0 11 5 11 10 0 6 -2 10 -4 10 -3 0
-8 -4 -11 -10z"/>
<path d="M1256 178 c3 -5 10 -6 15 -3 13 9 11 12 -6 12 -8 0 -12 -4 -9 -9z"/>
<path d="M1293 175 c0 -8 4 -12 9 -9 5 3 6 10 3 15 -9 13 -12 11 -12 -6z"/>
<path d="M1376 181 c-3 -5 2 -15 12 -22 15 -12 16 -12 5 2 -7 9 -10 19 -6 22
3 4 4 7 0 7 -3 0 -8 -4 -11 -9z"/>
<path d="M1495 179 c-3 -4 2 -6 10 -5 21 3 28 13 10 13 -9 0 -18 -4 -20 -8z"/>
<path d="M755 169 c-4 -6 -5 -12 -2 -15 2 -3 7 2 10 11 7 17 1 20 -8 4z"/>
<path d="M1805 160 c-3 -6 1 -7 9 -4 18 7 21 14 7 14 -6 0 -13 -4 -16 -10z"/>
</g>
</svg>
